u2194_ 350 - 100.ufo
<glyph name="dollar" format="1">
  <advance width="900"/>
  <unicode hex="0024"/>
  <outline>
    <contour>
      <point x="350" y="533" type="line"/>
      <point x="308" y="541" type="line"/>
      <point x="350" y="676" type="line"/>
    </contour>
    <contour>
      <point x="450" y="-101" type="curve" smooth="yes"/>
      <point x="478" y="-101"/>
      <point x="504" y="-88"/>
      <point x="523" y="-69" type="curve"/>
      <point x="789" y="51" type="line" smooth="yes"/>
      <point x="854" y="80"/>
      <point x="870" y="155"/>
      <point x="822" y="208" type="curve" smooth="yes"/>
      <point x="595" y="465" type="line" smooth="yes"/>
      <point x="585" y="477"/>
      <point x="566" y="488"/>
      <point x="550" y="494" type="curve"/>
      <point x="550" y="691" type="line"/>
      <point x="572" y="691" type="line"/>
      <point x="666" y="545" type="line" smooth="yes"/>
      <point x="695" y="499"/>
      <point x="759" y="486"/>
      <point x="804" y="515" type="curve" smooth="yes"/>
      <point x="850" y="544"/>
      <point x="863" y="608"/>
      <point x="834" y="653" type="curve" smooth="yes"/>
      <point x="711" y="845" type="line" smooth="yes"/>
      <point x="695" y="870"/>
      <point x="657" y="891"/>
      <point x="627" y="891" type="curve" smooth="yes"/>
      <point x="486" y="892" type="line"/>
      <point x="475" y="896"/>
      <point x="463" y="899"/>
      <point x="450" y="899" type="curve" smooth="yes"/>
      <point x="438" y="899"/>
      <point x="426" y="897"/>
      <point x="415" y="893" type="curve"/>
      <point x="283" y="894" type="line" smooth="yes"/>
      <point x="242" y="894"/>
      <point x="199" y="862"/>
      <point x="186" y="823" type="curve" smooth="yes"/>
      <point x="84" y="494" type="line" smooth="yes"/>
      <point x="66" y="435"/>
      <point x="100" y="377"/>
      <point x="161" y="366" type="curve" smooth="yes"/>
      <point x="350" y="330" type="line"/>
      <point x="350" y="178" type="line"/>
      <point x="207" y="280" type="line" smooth="yes"/>
      <point x="163" y="312"/>
      <point x="99" y="301"/>
      <point x="68" y="257" type="curve" smooth="yes"/>
      <point x="36" y="213"/>
      <point x="47" y="149"/>
      <point x="91" y="118" type="curve" smooth="yes"/>
      <point x="371" y="-82" type="line" smooth="yes"/>
      <point x="388" y="-94"/>
      <point x="411" y="-100"/>
      <point x="434" y="-100" type="curve"/>
      <point x="439" y="-101"/>
      <point x="445" y="-101"/>
    </contour>
    <contour>
      <point x="550" y="163" type="line"/>
      <point x="550" y="214" type="line"/>
      <point x="583" y="177" type="line"/>
    </contour>
  </outline>
</glyph>
<glyph name="ampersand" format="1">
  <advance width="878"/>
  <unicode hex="0026"/>
  <outline>
    <contour>
      <point x="788" y="-79" type="curve" smooth="yes"/>
      <point x="831" y="-47"/>
      <point x="840" y="18"/>
      <point x="808" y="61" type="curve" smooth="yes"/>
      <point x="689" y="220" type="line"/>
      <point x="798" y="329" type="line" smooth="yes"/>
      <point x="836" y="368"/>
      <point x="836" y="433"/>
      <point x="798" y="471" type="curve" smooth="yes"/>
      <point x="776" y="493"/>
      <point x="745" y="502"/>
      <point x="716" y="499" type="curve"/>
      <point x="715" y="524"/>
      <point x="704" y="550"/>
      <point x="682" y="572" type="curve" smooth="yes"/>
      <point x="433" y="813" type="line" smooth="yes"/>
      <point x="367" y="876"/>
      <point x="273" y="842"/>
      <point x="264" y="752" type="curve" smooth="yes"/>
      <point x="235" y="486" type="line"/>
      <point x="217" y="474"/>
      <point x="200" y="456"/>
      <point x="192" y="438" type="curve" smooth="yes"/>
      <point x="59" y="115" type="line" smooth="yes"/>
      <point x="25" y="33"/>
      <point x="88" y="-41"/>
      <point x="175" y="-20" type="curve" smooth="yes"/>
      <point x="509" y="61" type="line" smooth="yes"/>
      <point x="520" y="63"/>
      <point x="534" y="70"/>
      <point x="545" y="78" type="curve"/>
      <point x="648" y="-59" type="line" smooth="yes"/>
      <point x="680" y="-102"/>
      <point x="745" y="-111"/>
    </contour>
    <contour>
      <point x="568" y="382" type="line"/>
      <point x="568" y="382" type="line"/>
      <point x="568" y="382" type="line"/>
    </contour>
    <contour>
      <point x="319" y="220" type="line"/>
      <point x="354" y="305" type="line"/>
      <point x="359" y="307"/>
      <point x="365" y="309"/>
      <point x="370" y="311" type="curve"/>
      <point x="420" y="245" type="line"/>
    </contour>
  </outline>
</glyph>
<glyph name="asterisk" format="1">
  <advance width="699"/>
  <unicode hex="002A"/>
  <outline>
    <contour>
      <point x="252" y="462" type="line"/>
      <point x="257" y="467" type="line"/>
      <point x="257" y="466"/>
      <point x="257" y="466"/>
      <point x="257" y="465" type="curve"/>
    </contour>
    <contour>
      <point x="292" y="245" type="curve" smooth="yes"/>
      <point x="307" y="266" type="line"/>
      <point x="376" y="301" type="line"/>
      <point x="420" y="242" type="line" smooth="yes"/>
      <point x="452" y="199"/>
      <point x="517" y="190"/>
      <point x="560" y="222" type="curve" smooth="yes"/>
      <point x="603" y="254"/>
      <point x="612" y="319"/>
      <point x="580" y="362" type="curve" smooth="yes"/>
      <point x="557" y="393" type="line"/>
      <point x="595" y="413" type="line" smooth="yes"/>
      <point x="644" y="437"/>
      <point x="664" y="499"/>
      <point x="639" y="547" type="curve" smooth="yes"/>
      <point x="615" y="596"/>
      <point x="553" y="616"/>
      <point x="505" y="591" type="curve" smooth="yes"/>
      <point x="435" y="556" type="line"/>
      <point x="430" y="562" type="line" smooth="yes"/>
      <point x="418" y="578"/>
      <point x="402" y="589"/>
      <point x="385" y="595" type="curve"/>
      <point x="421" y="631" type="line" smooth="yes"/>
      <point x="459" y="669"/>
      <point x="459" y="735"/>
      <point x="421" y="773" type="curve" smooth="yes"/>
      <point x="383" y="811"/>
      <point x="317" y="811"/>
      <point x="279" y="773" type="curve" smooth="yes"/>
      <point x="79" y="573" type="line" smooth="yes"/>
      <point x="41" y="535"/>
      <point x="41" y="469"/>
      <point x="79" y="431" type="curve" smooth="yes"/>
      <point x="101" y="410"/>
      <point x="130" y="401"/>
      <point x="159" y="403" type="curve"/>
      <point x="157" y="401" type="line" smooth="yes"/>
      <point x="128" y="359" type="line" smooth="yes"/>
      <point x="97" y="315"/>
      <point x="108" y="251"/>
      <point x="153" y="220" type="curve" smooth="yes"/>
      <point x="197" y="189"/>
      <point x="261" y="200"/>
    </contour>
  </outline>
</glyph>
<glyph name="slash" format="1">
  <advance width="898"/>
  <unicode hex="002F"/>
  <outline>
    <contour>
      <point x="229" y="-58" type="curve" smooth="yes"/>
      <point x="829" y="742" type="line" smooth="yes"/>
      <point x="861" y="785"/>
      <point x="852" y="850"/>
      <point x="809" y="882" type="curve" smooth="yes"/>
      <point x="766" y="914"/>
      <point x="701" y="905"/>
      <point x="669" y="862" type="curve" smooth="yes"/>
      <point x="69" y="62" type="line" smooth="yes"/>
      <point x="37" y="19"/>
      <point x="46" y="-46"/>
      <point x="89" y="-78" type="curve" smooth="yes"/>
      <point x="132" y="-110"/>
      <point x="197" y="-101"/>
    </contour>
  </outline>
</glyph>
<glyph name="zero" format="1">
  <advance width="900"/>
  <unicode hex="0030"/>
  <outline>
    <contour>
      <point x="360" y="-97" type="curve" smooth="yes"/>
      <point x="704" y="-61" type="line" smooth="yes"/>
      <point x="746" y="-57"/>
      <point x="785" y="-20"/>
      <point x="792" y="22" type="curve" smooth="yes"/>
      <point x="849" y="366" type="line" smooth="yes"/>
      <point x="850" y="373"/>
      <point x="850" y="385"/>
      <point x="849" y="393" type="curve" smooth="yes"/>
      <point x="813" y="731" type="line" smooth="yes"/>
      <point x="812" y="749"/>
      <point x="803" y="767"/>
      <point x="792" y="782" type="curve"/>
      <point x="785" y="794"/>
      <point x="776" y="805"/>
      <point x="764" y="814" type="curve" smooth="yes"/>
      <point x="741" y="832"/>
      <point x="711" y="837"/>
      <point x="683" y="831" type="curve"/>
      <point x="402" y="899" type="line" smooth="yes"/>
      <point x="369" y="907"/>
      <point x="325" y="893"/>
      <point x="303" y="868" type="curve" smooth="yes"/>
      <point x="75" y="608" type="line" smooth="yes"/>
      <point x="61" y="592"/>
      <point x="50" y="563"/>
      <point x="50" y="542" type="curve" smooth="yes"/>
      <point x="50" y="195" type="line" smooth="yes"/>
      <point x="50" y="172"/>
      <point x="64" y="139"/>
      <point x="81" y="123" type="curve" smooth="yes"/>
      <point x="102" y="103" type="line"/>
      <point x="80" y="61"/>
      <point x="91" y="6"/>
      <point x="130" y="-24" type="curve" smooth="yes"/>
      <point x="162" y="-48"/>
      <point x="207" y="-49"/>
      <point x="241" y="-30" type="curve"/>
      <point x="273" y="-60" type="line"/>
      <point x="294" y="-86"/>
      <point x="326" y="-101"/>
    </contour>
    <contour>
      <point x="250" y="301" type="line"/>
      <point x="250" y="504" type="line"/>
      <point x="413" y="691" type="line"/>
      <point x="525" y="664" type="line"/>
    </contour>
    <contour>
      <point x="387" y="106" type="line"/>
      <point x="368" y="125" type="line"/>
      <point x="639" y="482" type="line"/>
      <point x="649" y="385" type="line"/>
      <point x="607" y="130" type="line"/>
    </contour>
  </outline>
</glyph>
<glyph name="one" format="1">
  <advance width="900"/>
  <unicode hex="0031"/>
  <outline>
    <contour>
      <point x="150" y="-99" type="curve" smooth="yes"/>
      <point x="750" y="-99" type="line" smooth="yes"/>
      <point x="804" y="-99"/>
      <point x="850" y="-53"/>
      <point x="850" y="1" type="curve" smooth="yes"/>
      <point x="850" y="55"/>
      <point x="804" y="101"/>
      <point x="750" y="101" type="curve" smooth="yes"/>
      <point x="444" y="101" type="line"/>
      <point x="531" y="223" type="line" smooth="yes"/>
      <point x="542" y="237"/>
      <point x="550" y="263"/>
      <point x="550" y="281" type="curve" smooth="yes"/>
      <point x="550" y="631" type="line" smooth="yes"/>
      <point x="550" y="692"/>
      <point x="500" y="737"/>
      <point x="440" y="731" type="curve" smooth="yes"/>
      <point x="140" y="701" type="line" smooth="yes"/>
      <point x="86" y="695"/>
      <point x="45" y="645"/>
      <point x="50" y="591" type="curve" smooth="yes"/>
      <point x="56" y="537"/>
      <point x="106" y="496"/>
      <point x="160" y="501" type="curve" smooth="yes"/>
      <point x="350" y="521" type="line"/>
      <point x="350" y="313" type="line"/>
      <point x="199" y="101" type="line"/>
      <point x="150" y="101" type="line" smooth="yes"/>
      <point x="96" y="101"/>
      <point x="50" y="55"/>
      <point x="50" y="1" type="curve" smooth="yes"/>
      <point x="50" y="-53"/>
      <point x="96" y="-99"/>
    </contour>
  </outline>
</glyph>
<glyph name="two" format="1">
  <advance width="903"/>
  <unicode hex="0032"/>
  <outline>
    <contour>
      <point x="401" y="-100" type="curve" smooth="yes"/>
      <point x="751" y="-100" type="line" smooth="yes"/>
      <point x="805" y="-100"/>
      <point x="851" y="-54"/>
      <point x="851" y="0" type="curve" smooth="yes"/>
      <point x="851" y="54"/>
      <point x="805" y="100"/>
      <point x="751" y="100" type="curve" smooth="yes"/>
      <point x="441" y="100" type="line"/>
      <point x="321" y="213" type="line"/>
      <point x="499" y="313" type="line"/>
      <point x="798" y="478" type="line" smooth="yes"/>
      <point x="862" y="513"/>
      <point x="871" y="590"/>
      <point x="817" y="640" type="curve" smooth="yes"/>
      <point x="558" y="874" type="line" smooth="yes"/>
      <point x="534" y="896"/>
      <point x="490" y="905"/>
      <point x="460" y="895" type="curve" smooth="yes"/>
      <point x="131" y="786" type="line" smooth="yes"/>
      <point x="98" y="775"/>
      <point x="68" y="738"/>
      <point x="63" y="704" type="curve" smooth="yes"/>
      <point x="52" y="613" type="line" smooth="yes"/>
      <point x="45" y="559"/>
      <point x="85" y="508"/>
      <point x="138" y="501" type="curve" smooth="yes"/>
      <point x="192" y="494"/>
      <point x="243" y="534"/>
      <point x="250" y="587" type="curve" smooth="yes"/>
      <point x="254" y="616" type="line"/>
      <point x="467" y="687" type="line"/>
      <point x="579" y="585" type="line"/>
      <point x="403" y="487" type="line"/>
      <point x="104" y="322" type="line" smooth="yes"/>
      <point x="41" y="287"/>
      <point x="31" y="211"/>
      <point x="84" y="162" type="curve" smooth="yes"/>
      <point x="332" y="-73" type="line" smooth="yes"/>
      <point x="348" y="-88"/>
      <point x="379" y="-100"/>
    </contour>
  </outline>
</glyph>
<glyph name="three" format="1">
  <advance width="896"/>
  <unicode hex="0033"/>
  <outline>
    <contour>
      <point x="468" y="-91" type="curve" smooth="yes"/>
      <point x="783" y="44" type="line" smooth="yes"/>
      <point x="849" y="72"/>
      <point x="866" y="146"/>
      <point x="820" y="201" type="curve" smooth="yes"/>
      <point x="650" y="401" type="line"/>
      <point x="820" y="601" type="line" smooth="yes"/>
      <point x="866" y="656"/>
      <point x="849" y="730"/>
      <point x="783" y="758" type="curve" smooth="yes"/>
      <point x="468" y="893" type="line" smooth="yes"/>
      <point x="440" y="905"/>
      <point x="396" y="900"/>
      <point x="371" y="882" type="curve" smooth="yes"/>
      <point x="91" y="682" type="line" smooth="yes"/>
      <point x="47" y="651"/>
      <point x="36" y="587"/>
      <point x="68" y="543" type="curve" smooth="yes"/>
      <point x="99" y="499"/>
      <point x="163" y="488"/>
      <point x="207" y="520" type="curve" smooth="yes"/>
      <point x="441" y="687" type="line"/>
      <point x="580" y="627" type="line"/>
      <point x="443" y="466" type="line" smooth="yes"/>
      <point x="412" y="430"/>
      <point x="412" y="372"/>
      <point x="443" y="336" type="curve" smooth="yes"/>
      <point x="580" y="175" type="line"/>
      <point x="441" y="115" type="line"/>
      <point x="207" y="282" type="line" smooth="yes"/>
      <point x="163" y="314"/>
      <point x="99" y="303"/>
      <point x="68" y="259" type="curve" smooth="yes"/>
      <point x="36" y="215"/>
      <point x="47" y="151"/>
      <point x="91" y="120" type="curve" smooth="yes"/>
      <point x="371" y="-80" type="line" smooth="yes"/>
      <point x="396" y="-98"/>
      <point x="440" y="-103"/>
    </contour>
  </outline>
</glyph>
<glyph name="four" format="1">
  <advance width="708"/>
  <unicode hex="0034"/>
  <outline>
    <contour>
      <point x="558" y="-99" type="curve" smooth="yes"/>
      <point x="612" y="-99"/>
      <point x="658" y="-53"/>
      <point x="658" y="1" type="curve" smooth="yes"/>
      <point x="658" y="600" type="line" smooth="yes"/>
      <point x="658" y="654"/>
      <point x="612" y="700"/>
      <point x="558" y="700" type="curve" smooth="yes"/>
      <point x="504" y="700"/>
      <point x="458" y="654"/>
      <point x="458" y="600" type="curve" smooth="yes"/>
      <point x="458" y="294" type="line"/>
      <point x="360" y="364" type="line"/>
      <point x="261" y="610" type="line"/>
      <point x="344" y="749" type="line" smooth="yes"/>
      <point x="372" y="795"/>
      <point x="356" y="858"/>
      <point x="309" y="886" type="curve" smooth="yes"/>
      <point x="263" y="914"/>
      <point x="200" y="898"/>
      <point x="172" y="851" type="curve" smooth="yes"/>
      <point x="64" y="670" type="line" smooth="yes"/>
      <point x="49" y="647"/>
      <point x="46" y="607"/>
      <point x="57" y="582" type="curve" smooth="yes"/>
      <point x="185" y="263" type="line" smooth="yes"/>
      <point x="191" y="248"/>
      <point x="207" y="228"/>
      <point x="220" y="219" type="curve" smooth="yes"/>
      <point x="458" y="49" type="line"/>
      <point x="458" y="1" type="line" smooth="yes"/>
      <point x="458" y="-53"/>
      <point x="504" y="-99"/>
    </contour>
  </outline>
</glyph>
<glyph name="five" format="1">
  <advance width="899"/>
  <unicode hex="0035"/>
  <outline>
    <contour>
      <point x="468" y="-91" type="curve" smooth="yes"/>
      <point x="783" y="44" type="line" smooth="yes"/>
      <point x="849" y="72"/>
      <point x="866" y="146"/>
      <point x="820" y="201" type="curve" smooth="yes"/>
      <point x="595" y="466" type="line" smooth="yes"/>
      <point x="579" y="485"/>
      <point x="545" y="501"/>
      <point x="519" y="501" type="curve" smooth="yes"/>
      <point x="274" y="501" type="line"/>
      <point x="282" y="660" type="line"/>
      <point x="537" y="701" type="line"/>
      <point x="749" y="701" type="line" smooth="yes"/>
      <point x="803" y="701"/>
      <point x="849" y="747"/>
      <point x="849" y="801" type="curve" smooth="yes"/>
      <point x="849" y="855"/>
      <point x="803" y="901"/>
      <point x="749" y="901" type="curve" smooth="yes"/>
      <point x="529" y="901" type="line" smooth="yes"/>
      <point x="525" y="901"/>
      <point x="517" y="900"/>
      <point x="513" y="900" type="curve" smooth="yes"/>
      <point x="170" y="844" type="line" smooth="yes"/>
      <point x="126" y="837"/>
      <point x="89" y="795"/>
      <point x="86" y="751" type="curve" smooth="yes"/>
      <point x="69" y="406" type="line" smooth="yes"/>
      <point x="66" y="348"/>
      <point x="111" y="301"/>
      <point x="169" y="301" type="curve" smooth="yes"/>
      <point x="473" y="301" type="line"/>
      <point x="580" y="175" type="line"/>
      <point x="441" y="115" type="line"/>
      <point x="207" y="282" type="line" smooth="yes"/>
      <point x="163" y="314"/>
      <point x="99" y="303"/>
      <point x="68" y="259" type="curve" smooth="yes"/>
      <point x="36" y="215"/>
      <point x="47" y="151"/>
      <point x="91" y="120" type="curve" smooth="yes"/>
      <point x="371" y="-80" type="line" smooth="yes"/>
      <point x="396" y="-98"/>
      <point x="440" y="-103"/>
    </contour>
  </outline>
</glyph>
<glyph name="six" format="1">
  <advance width="900"/>
  <unicode hex="0036"/>
  <outline>
    <contour>
      <point x="595" y="-65" type="curve" smooth="yes"/>
      <point x="823" y="194" type="line" smooth="yes"/>
      <point x="870" y="248"/>
      <point x="854" y="323"/>
      <point x="788" y="352" type="curve" smooth="yes"/>
      <point x="480" y="488" type="line"/>
      <point x="279" y="632" type="line"/>
      <point x="283" y="664" type="line"/>
      <point x="506" y="695" type="line"/>
      <point x="681" y="529" type="line" smooth="yes"/>
      <point x="720" y="491"/>
      <point x="785" y="493"/>
      <point x="822" y="532" type="curve" smooth="yes"/>
      <point x="860" y="571"/>
      <point x="858" y="636"/>
      <point x="819" y="673" type="curve" smooth="yes"/>
      <point x="609" y="873" type="line" smooth="yes"/>
      <point x="590" y="892"/>
      <point x="553" y="904"/>
      <point x="526" y="900" type="curve" smooth="yes"/>
      <point x="180" y="851" type="line" smooth="yes"/>
      <point x="138" y="846"/>
      <point x="100" y="807"/>
      <point x="94" y="765" type="curve" smooth="yes"/>
      <point x="83" y="675" type="line"/>
      <point x="78" y="670"/>
      <point x="73" y="665"/>
      <point x="69" y="659" type="curve" smooth="yes"/>
      <point x="45" y="626"/>
      <point x="45" y="580"/>
      <point x="67" y="547" type="curve"/>
      <point x="51" y="424" type="line" smooth="yes"/>
      <point x="50" y="418"/>
      <point x="50" y="408"/>
      <point x="50" y="402" type="curve" smooth="yes"/>
      <point x="82" y="54" type="line" smooth="yes"/>
      <point x="86" y="13"/>
      <point x="122" y="-27"/>
      <point x="164" y="-35" type="curve" smooth="yes"/>
      <point x="502" y="-97" type="line" smooth="yes"/>
      <point x="533" y="-103"/>
      <point x="574" y="-89"/>
    </contour>
    <contour>
      <point x="372" y="320" type="line" smooth="yes"/>
      <point x="376" y="316"/>
      <point x="384" y="312"/>
      <point x="389" y="310" type="curve" smooth="yes"/>
      <point x="583" y="224" type="line"/>
      <point x="482" y="110" type="line"/>
      <point x="274" y="148" type="line"/>
      <point x="251" y="406" type="line"/>
    </contour>
  </outline>
</glyph>
<glyph name="seven" format="1">
  <advance width="876"/>
  <unicode hex="0037"/>
  <outline>
    <contour>
      <point x="433" y="-58" type="curve" smooth="yes"/>
      <point x="622" y="225" type="line"/>
      <point x="810" y="508" type="line" smooth="yes"/>
      <point x="836" y="548"/>
      <point x="829" y="606"/>
      <point x="794" y="638" type="curve" smooth="yes"/>
      <point x="536" y="871" type="line" smooth="yes"/>
      <point x="521" y="885"/>
      <point x="490" y="897"/>
      <point x="469" y="897" type="curve" smooth="yes"/>
      <point x="150" y="897" type="line" smooth="yes"/>
      <point x="96" y="897"/>
      <point x="50" y="851"/>
      <point x="50" y="797" type="curve" smooth="yes"/>
      <point x="50" y="743"/>
      <point x="96" y="697"/>
      <point x="150" y="697" type="curve" smooth="yes"/>
      <point x="431" y="697" type="line"/>
      <point x="596" y="547" type="line"/>
      <point x="455" y="336" type="line"/>
      <point x="267" y="52" type="line" smooth="yes"/>
      <point x="237" y="7"/>
      <point x="250" y="-56"/>
      <point x="295" y="-86" type="curve" smooth="yes"/>
      <point x="340" y="-116"/>
      <point x="403" y="-103"/>
    </contour>
  </outline>
</glyph>
<glyph name="eight" format="1">
  <advance width="906"/>
  <unicode hex="0038"/>
  <outline>
    <contour>
      <point x="546" y="-77" type="curve" smooth="yes"/>
      <point x="816" y="143" type="line" smooth="yes"/>
      <point x="874" y="190"/>
      <point x="868" y="268"/>
      <point x="804" y="306" type="curve" smooth="yes"/>
      <point x="666" y="389" type="line"/>
      <point x="828" y="637" type="line" smooth="yes"/>
      <point x="866" y="695"/>
      <point x="841" y="765"/>
      <point x="775" y="786" type="curve" smooth="yes"/>
      <point x="444" y="895" type="line" smooth="yes"/>
      <point x="414" y="905"/>
      <point x="371" y="896"/>
      <point x="347" y="875" type="curve" smooth="yes"/>
      <point x="87" y="647" type="line" smooth="yes"/>
      <point x="32" y="599"/>
      <point x="40" y="522"/>
      <point x="104" y="485" type="curve" smooth="yes"/>
      <point x="248" y="402" type="line"/>
      <point x="79" y="186" type="line" smooth="yes"/>
      <point x="35" y="130"/>
      <point x="56" y="57"/>
      <point x="122" y="31" type="curve" smooth="yes"/>
      <point x="447" y="-93" type="line" smooth="yes"/>
      <point x="477" y="-105"/>
      <point x="521" y="-98"/>
    </contour>
    <contour>
      <point x="499" y="500" type="line"/>
      <point x="480" y="500" type="line"/>
      <point x="324" y="589" type="line"/>
      <point x="436" y="687" type="line"/>
      <point x="589" y="637" type="line"/>
    </contour>
    <contour>
      <point x="579" y="208" type="line"/>
      <point x="465" y="114" type="line"/>
      <point x="320" y="170" type="line"/>
      <point x="422" y="300" type="line"/>
      <point x="425" y="300" type="line"/>
    </contour>
  </outline>
</glyph>
<glyph name="nine" format="1">
  <advance width="900"/>
  <unicode hex="0039"/>
  <outline>
    <contour>
      <point x="528" y="481" type="line" smooth="yes"/>
      <point x="524" y="485"/>
      <point x="516" y="489"/>
      <point x="511" y="491" type="curve" smooth="yes"/>
      <point x="317" y="577" type="line"/>
      <point x="418" y="691" type="line"/>
      <point x="626" y="653" type="line"/>
      <point x="649" y="395" type="line"/>
    </contour>
    <contour>
      <point x="374" y="-99" type="curve" smooth="yes"/>
      <point x="720" y="-50" type="line" smooth="yes"/>
      <point x="762" y="-45"/>
      <point x="800" y="-6"/>
      <point x="806" y="36" type="curve" smooth="yes"/>
      <point x="817" y="126" type="line"/>
      <point x="822" y="131"/>
      <point x="827" y="136"/>
      <point x="831" y="142" type="curve" smooth="yes"/>
      <point x="855" y="175"/>
      <point x="855" y="221"/>
      <point x="833" y="254" type="curve"/>
      <point x="849" y="377" type="line" smooth="yes"/>
      <point x="850" y="383"/>
      <point x="850" y="393"/>
      <point x="850" y="399" type="curve" smooth="yes"/>
      <point x="818" y="747" type="line" smooth="yes"/>
      <point x="814" y="788"/>
      <point x="778" y="828"/>
      <point x="736" y="836" type="curve" smooth="yes"/>
      <point x="398" y="898" type="line" smooth="yes"/>
      <point x="367" y="904"/>
      <point x="326" y="890"/>
      <point x="305" y="866" type="curve" smooth="yes"/>
      <point x="77" y="607" type="line" smooth="yes"/>
      <point x="30" y="553"/>
      <point x="46" y="478"/>
      <point x="112" y="449" type="curve" smooth="yes"/>
      <point x="420" y="313" type="line"/>
      <point x="621" y="169" type="line"/>
      <point x="617" y="137" type="line"/>
      <point x="394" y="106" type="line"/>
      <point x="219" y="272" type="line" smooth="yes"/>
      <point x="180" y="310"/>
      <point x="115" y="308"/>
      <point x="78" y="269" type="curve" smooth="yes"/>
      <point x="40" y="230"/>
      <point x="42" y="165"/>
      <point x="81" y="128" type="curve" smooth="yes"/>
      <point x="291" y="-72" type="line" smooth="yes"/>
      <point x="310" y="-91"/>
      <point x="347" y="-103"/>
    </contour>
  </outline>
</glyph>
<glyph name="less" format="1">
  <advance width="614"/>
  <unicode hex="003C"/>
  <outline>
    <contour>
      <point x="553" y="58" type="curve" smooth="yes"/>
      <point x="578" y="107"/>
      <point x="557" y="168"/>
      <point x="509" y="192" type="curve" smooth="yes"/>
      <point x="475" y="209" type="line"/>
      <point x="334" y="326" type="line"/>
      <point x="509" y="414" type="line" smooth="yes"/>
      <point x="557" y="438"/>
      <point x="578" y="499"/>
      <point x="553" y="548" type="curve" smooth="yes"/>
      <point x="529" y="596"/>
      <point x="468" y="617"/>
      <point x="419" y="592" type="curve" smooth="yes"/>
      <point x="108" y="437" type="line" smooth="yes"/>
      <point x="39" y="402"/>
      <point x="29" y="320"/>
      <point x="89" y="271" type="curve" smooth="yes"/>
      <point x="356" y="48" type="line" smooth="yes"/>
      <point x="360" y="44"/>
      <point x="369" y="39"/>
      <point x="375" y="36" type="curve" smooth="yes"/>
      <point x="419" y="14" type="line" smooth="yes"/>
      <point x="468" y="-11"/>
      <point x="529" y="10"/>
    </contour>
  </outline>
</glyph>
<glyph name="equal" format="1">
  <advance width="900"/>
  <unicode hex="003D"/>
  <outline>
    <contour>
      <point x="150" y="338" type="curve" smooth="yes"/>
      <point x="750" y="338" type="line" smooth="yes"/>
      <point x="804" y="338"/>
      <point x="850" y="384"/>
      <point x="850" y="438" type="curve" smooth="yes"/>
      <point x="850" y="492"/>
      <point x="804" y="538"/>
      <point x="750" y="538" type="curve" smooth="yes"/>
      <point x="150" y="538" type="line" smooth="yes"/>
      <point x="96" y="538"/>
      <point x="50" y="492"/>
      <point x="50" y="438" type="curve" smooth="yes"/>
      <point x="50" y="384"/>
      <point x="96" y="338"/>
    </contour>
    <contour>
      <point x="150" y="38" type="curve" smooth="yes"/>
      <point x="750" y="38" type="line" smooth="yes"/>
      <point x="804" y="38"/>
      <point x="850" y="84"/>
      <point x="850" y="138" type="curve" smooth="yes"/>
      <point x="850" y="192"/>
      <point x="804" y="238"/>
      <point x="750" y="238" type="curve" smooth="yes"/>
      <point x="150" y="238" type="line" smooth="yes"/>
      <point x="96" y="238"/>
      <point x="50" y="192"/>
      <point x="50" y="138" type="curve" smooth="yes"/>
      <point x="50" y="84"/>
      <point x="96" y="38"/>
    </contour>
  </outline>
</glyph>
<glyph name="greater" format="1">
  <advance width="614"/>
  <unicode hex="003E"/>
  <outline>
    <contour>
      <point x="195" y="31" type="curve" smooth="yes"/>
      <point x="239" y="53" type="line" smooth="yes"/>
      <point x="245" y="56"/>
      <point x="254" y="61"/>
      <point x="258" y="65" type="curve" smooth="yes"/>
      <point x="525" y="288" type="line" smooth="yes"/>
      <point x="585" y="337"/>
      <point x="575" y="419"/>
      <point x="506" y="454" type="curve" smooth="yes"/>
      <point x="195" y="609" type="line" smooth="yes"/>
      <point x="146" y="634"/>
      <point x="85" y="613"/>
      <point x="61" y="565" type="curve" smooth="yes"/>
      <point x="36" y="516"/>
      <point x="57" y="455"/>
      <point x="105" y="431" type="curve" smooth="yes"/>
      <point x="280" y="343" type="line"/>
      <point x="139" y="226" type="line"/>
      <point x="105" y="209" type="line" smooth="yes"/>
      <point x="57" y="185"/>
      <point x="36" y="124"/>
      <point x="61" y="75" type="curve" smooth="yes"/>
      <point x="85" y="27"/>
      <point x="146" y="6"/>
    </contour>
  </outline>
</glyph>
<glyph name="question" format="1">
  <advance width="750"/>
  <unicode hex="003F"/>
  <outline>
    <contour>
      <point x="349" y="-100" type="curve" smooth="yes"/>
      <point x="403" y="-100"/>
      <point x="449" y="-54"/>
      <point x="449" y="0" type="curve" smooth="yes"/>
      <point x="449" y="11" type="line" smooth="yes"/>
      <point x="449" y="54"/>
      <point x="420" y="92"/>
      <point x="381" y="106" type="curve"/>
      <point x="395" y="110"/>
      <point x="408" y="118"/>
      <point x="419" y="128" type="curve" smooth="yes"/>
      <point x="670" y="371" type="line" smooth="yes"/>
      <point x="690" y="391"/>
      <point x="703" y="430"/>
      <point x="699" y="458" type="curve" smooth="yes"/>
      <point x="649" y="799" type="line" smooth="yes"/>
      <point x="641" y="852"/>
      <point x="592" y="890"/>
      <point x="539" y="884" type="curve" smooth="yes"/>
      <point x="193" y="843" type="line" smooth="yes"/>
      <point x="159" y="840"/>
      <point x="122" y="811"/>
      <point x="110" y="779" type="curve" smooth="yes"/>
      <point x="56" y="634" type="line" smooth="yes"/>
      <point x="37" y="583"/>
      <point x="64" y="524"/>
      <point x="115" y="505" type="curve" smooth="yes"/>
      <point x="166" y="486"/>
      <point x="225" y="513"/>
      <point x="244" y="564" type="curve" smooth="yes"/>
      <point x="276" y="652" type="line"/>
      <point x="465" y="674" type="line"/>
      <point x="494" y="479" type="line"/>
      <point x="279" y="272" type="line" smooth="yes"/>
      <point x="241" y="234"/>
      <point x="240" y="169"/>
      <point x="277" y="130" type="curve" smooth="yes"/>
      <point x="289" y="119"/>
      <point x="302" y="110"/>
      <point x="317" y="106" type="curve"/>
      <point x="278" y="92"/>
      <point x="249" y="54"/>
      <point x="249" y="11" type="curve" smooth="yes"/>
      <point x="249" y="0" type="line" smooth="yes"/>
      <point x="249" y="-54"/>
      <point x="295" y="-100"/>
    </contour>
  </outline>
</glyph>
<glyph name="at" format="1">
  <advance width="899"/>
  <unicode hex="0040"/>
  <outline>
    <contour>
      <point x="473" y="621" type="curve" smooth="yes"/>
      <point x="277" y="383" type="line" smooth="yes"/>
      <point x="262" y="365"/>
      <point x="254" y="345"/>
      <point x="252" y="325" type="curve"/>
      <point x="250" y="336" type="line"/>
      <point x="263" y="596" type="line"/>
      <point x="469" y="648" type="line"/>
      <point x="484" y="633" type="line"/>
      <point x="480" y="630"/>
      <point x="476" y="626"/>
    </contour>
    <contour>
      <point x="314" y="228" type="curve" smooth="yes"/>
      <point x="450" y="169" type="line"/>
      <point x="450" y="158" type="line" smooth="yes"/>
      <point x="450" y="112"/>
      <point x="483" y="72"/>
      <point x="526" y="61" type="curve"/>
      <point x="295" y="86" type="line"/>
      <point x="261" y="278" type="line"/>
      <point x="271" y="257"/>
      <point x="289" y="239"/>
    </contour>
    <contour>
      <point x="649" y="-53" type="curve" smooth="yes"/>
      <point x="655" y="1"/>
      <point x="614" y="52"/>
      <point x="561" y="57" type="curve" smooth="yes"/>
      <point x="554" y="58" type="line"/>
      <point x="582" y="59"/>
      <point x="607" y="72"/>
      <point x="625" y="92" type="curve"/>
      <point x="633" y="89" type="line" smooth="yes"/>
      <point x="693" y="63"/>
      <point x="756" y="95"/>
      <point x="770" y="158" type="curve" smooth="yes"/>
      <point x="847" y="496" type="line" smooth="yes"/>
      <point x="854" y="527"/>
      <point x="842" y="569"/>
      <point x="819" y="591" type="curve" smooth="yes"/>
      <point x="567" y="830" type="line" smooth="yes"/>
      <point x="545" y="851"/>
      <point x="503" y="862"/>
      <point x="474" y="855" type="curve" smooth="yes"/>
      <point x="142" y="772" type="line" smooth="yes"/>
      <point x="102" y="762"/>
      <point x="69" y="720"/>
      <point x="67" y="679" type="curve" smooth="yes"/>
      <point x="50" y="334" type="line" smooth="yes"/>
      <point x="50" y="328"/>
      <point x="50" y="318"/>
      <point x="52" y="312" type="curve" smooth="yes"/>
      <point x="111" y="-23" type="line" smooth="yes"/>
      <point x="119" y="-64"/>
      <point x="158" y="-101"/>
      <point x="199" y="-105" type="curve" smooth="yes"/>
      <point x="539" y="-141" type="line" smooth="yes"/>
      <point x="593" y="-147"/>
      <point x="644" y="-106"/>
    </contour>
  </outline>
</glyph>
<glyph name="B" format="1">
  <advance width="893"/>
  <unicode hex="0042"/>
  <outline>
    <contour>
      <point x="451" y="-90" type="curve" smooth="yes"/>
      <point x="776" y="32" type="line" smooth="yes"/>
      <point x="843" y="57"/>
      <point x="864" y="129"/>
      <point x="821" y="186" type="curve" smooth="yes"/>
      <point x="663" y="394" type="line"/>
      <point x="824" y="642" type="line" smooth="yes"/>
      <point x="862" y="701"/>
      <point x="837" y="771"/>
      <point x="771" y="792" type="curve" smooth="yes"/>
      <point x="439" y="899" type="line" smooth="yes"/>
      <point x="408" y="909"/>
      <point x="364" y="899"/>
      <point x="341" y="878" type="curve" smooth="yes"/>
      <point x="83" y="642" type="line" smooth="yes"/>
      <point x="65" y="626"/>
      <point x="50" y="593"/>
      <point x="50" y="568" type="curve"/>
      <point x="50" y="222" type="line"/>
      <point x="50" y="196"/>
      <point x="66" y="161"/>
      <point x="87" y="144" type="curve" smooth="yes"/>
      <point x="353" y="-73" type="line" smooth="yes"/>
      <point x="377" y="-93"/>
      <point x="421" y="-101"/>
    </contour>
    <contour>
      <point x="496" y="504" type="line"/>
      <point x="250" y="504" type="line"/>
      <point x="250" y="524" type="line"/>
      <point x="433" y="691" type="line"/>
      <point x="585" y="642" type="line"/>
    </contour>
    <contour>
      <point x="581" y="172" type="line"/>
      <point x="435" y="118" type="line"/>
      <point x="250" y="269" type="line"/>
      <point x="250" y="304" type="line"/>
      <point x="480" y="304" type="line"/>
    </contour>
  </outline>
</glyph>
<glyph name="C" format="1">
  <advance width="900"/>
  <unicode hex="0043"/>
  <outline>
    <contour>
      <point x="319" y="-102" type="curve" smooth="yes"/>
      <point x="662" y="-87" type="line" smooth="yes"/>
      <point x="694" y="-86"/>
      <point x="732" y="-61"/>
      <point x="747" y="-32" type="curve" smooth="yes"/>
      <point x="839" y="153" type="line" smooth="yes"/>
      <point x="864" y="202"/>
      <point x="843" y="263"/>
      <point x="795" y="287" type="curve" smooth="yes"/>
      <point x="746" y="312"/>
      <point x="685" y="291"/>
      <point x="661" y="243" type="curve" smooth="yes"/>
      <point x="594" y="110" type="line"/>
      <point x="373" y="101" type="line"/>
      <point x="250" y="330" type="line"/>
      <point x="251" y="588" type="line"/>
      <point x="457" y="683" type="line"/>
      <point x="692" y="516" type="line" smooth="yes"/>
      <point x="736" y="485"/>
      <point x="800" y="496"/>
      <point x="832" y="540" type="curve" smooth="yes"/>
      <point x="863" y="584"/>
      <point x="852" y="648"/>
      <point x="808" y="680" type="curve" smooth="yes"/>
      <point x="526" y="880" type="line" smooth="yes"/>
      <point x="500" y="898"/>
      <point x="455" y="902"/>
      <point x="426" y="889" type="curve" smooth="yes"/>
      <point x="110" y="743" type="line" smooth="yes"/>
      <point x="78" y="728"/>
      <point x="51" y="688"/>
      <point x="51" y="653" type="curve" smooth="yes"/>
      <point x="50" y="305" type="line" smooth="yes"/>
      <point x="50" y="291"/>
      <point x="55" y="270"/>
      <point x="62" y="258" type="curve" smooth="yes"/>
      <point x="227" y="-49" type="line" smooth="yes"/>
      <point x="243" y="-79"/>
      <point x="284" y="-103"/>
    </contour>
  </outline>
</glyph>
<glyph name="D" format="1">
  <advance width="900"/>
  <unicode hex="0044"/>
  <outline>
    <contour>
      <point x="292" y="-101" type="curve" smooth="yes"/>
      <point x="635" y="-94" type="line" smooth="yes"/>
      <point x="673" y="-93"/>
      <point x="715" y="-64"/>
      <point x="727" y="-28" type="curve" smooth="yes"/>
      <point x="844" y="295" type="line" smooth="yes"/>
      <point x="847" y="304"/>
      <point x="850" y="319"/>
      <point x="850" y="329" type="curve" smooth="yes"/>
      <point x="850" y="589" type="line" smooth="yes"/>
      <point x="850" y="593"/>
      <point x="850" y="596"/>
      <point x="849" y="599" type="curve"/>
      <point x="849" y="631"/>
      <point x="834" y="662"/>
      <point x="808" y="680" type="curve" smooth="yes"/>
      <point x="528" y="880" type="line" smooth="yes"/>
      <point x="502" y="899"/>
      <point x="458" y="903"/>
      <point x="430" y="891" type="curve" smooth="yes"/>
      <point x="110" y="751" type="line" smooth="yes"/>
      <point x="77" y="736"/>
      <point x="50" y="695"/>
      <point x="50" y="659" type="curve"/>
      <point x="50" y="319" type="line" smooth="yes"/>
      <point x="50" y="307"/>
      <point x="54" y="290"/>
      <point x="58" y="279" type="curve" smooth="yes"/>
      <point x="198" y="-41" type="line" smooth="yes"/>
      <point x="213" y="-75"/>
      <point x="255" y="-102"/>
    </contour>
    <contour>
      <point x="355" y="100" type="line"/>
      <point x="250" y="340" type="line"/>
      <point x="250" y="594" type="line"/>
      <point x="458" y="685" type="line"/>
      <point x="650" y="548" type="line"/>
      <point x="650" y="346" type="line"/>
      <point x="563" y="105" type="line"/>
    </contour>
  </outline>
</glyph>
<glyph name="E" format="1">
  <advance width="899"/>
  <unicode hex="0045"/>
  <outline>
    <contour>
      <point x="550" y="-100" type="line" smooth="yes"/>
      <point x="557" y="-100"/>
      <point x="564" y="-99"/>
      <point x="571" y="-98" type="curve"/>
      <point x="590" y="-94"/>
      <point x="608" y="-85"/>
      <point x="622" y="-71" type="curve" smooth="yes"/>
      <point x="820" y="125" type="line" smooth="yes"/>
      <point x="859" y="163"/>
      <point x="859" y="228"/>
      <point x="821" y="266" type="curve" smooth="yes"/>
      <point x="783" y="305"/>
      <point x="718" y="305"/>
      <point x="680" y="267" type="curve" smooth="yes"/>
      <point x="511" y="100" type="line"/>
      <point x="491" y="100" type="line"/>
      <point x="319" y="173" type="line"/>
      <point x="456" y="338" type="line" smooth="yes"/>
      <point x="486" y="374"/>
      <point x="485" y="432"/>
      <point x="453" y="468" type="curve" smooth="yes"/>
      <point x="317" y="622" type="line"/>
      <point x="457" y="685" type="line"/>
      <point x="691" y="520" type="line" smooth="yes"/>
      <point x="736" y="489"/>
      <point x="800" y="500"/>
      <point x="831" y="544" type="curve" smooth="yes"/>
      <point x="862" y="589"/>
      <point x="851" y="653"/>
      <point x="807" y="684" type="curve" smooth="yes"/>
      <point x="525" y="882" type="line" smooth="yes"/>
      <point x="499" y="900"/>
      <point x="455" y="904"/>
      <point x="426" y="891" type="curve" smooth="yes"/>
      <point x="111" y="748" type="line" smooth="yes"/>
      <point x="46" y="719"/>
      <point x="30" y="644"/>
      <point x="77" y="591" type="curve" smooth="yes"/>
      <point x="247" y="399" type="line"/>
      <point x="79" y="197" type="line" smooth="yes"/>
      <point x="34" y="142"/>
      <point x="52" y="69"/>
      <point x="118" y="41" type="curve" smooth="yes"/>
      <point x="432" y="-92" type="line" smooth="yes"/>
      <point x="443" y="-96"/>
      <point x="460" y="-100"/>
      <point x="471" y="-100" type="curve" smooth="yes"/>
    </contour>
  </outline>
</glyph>
<glyph name="F" format="1">
  <advance width="899"/>
  <unicode hex="0046"/>
  <outline>
    <contour>
      <point x="250" y="-1" type="curve" smooth="yes"/>
      <point x="251" y="109" type="line"/>
      <point x="462" y="333" type="line" smooth="yes"/>
      <point x="498" y="371"/>
      <point x="498" y="432"/>
      <point x="463" y="470" type="curve" smooth="yes"/>
      <point x="320" y="623" type="line"/>
      <point x="457" y="685" type="line"/>
      <point x="691" y="520" type="line" smooth="yes"/>
      <point x="736" y="489"/>
      <point x="800" y="500"/>
      <point x="831" y="544" type="curve" smooth="yes"/>
      <point x="862" y="589"/>
      <point x="851" y="653"/>
      <point x="807" y="684" type="curve" smooth="yes"/>
      <point x="525" y="882" type="line" smooth="yes"/>
      <point x="499" y="900"/>
      <point x="455" y="904"/>
      <point x="426" y="891" type="curve" smooth="yes"/>
      <point x="111" y="748" type="line" smooth="yes"/>
      <point x="45" y="718"/>
      <point x="29" y="642"/>
      <point x="79" y="589" type="curve" smooth="yes"/>
      <point x="253" y="402" type="line"/>
      <point x="78" y="217" type="line" smooth="yes"/>
      <point x="63" y="201"/>
      <point x="51" y="171"/>
      <point x="51" y="149" type="curve" smooth="yes"/>
      <point x="50" y="1" type="line" smooth="yes"/>
      <point x="50" y="-53"/>
      <point x="95" y="-100"/>
      <point x="149" y="-100" type="curve" smooth="yes"/>
      <point x="203" y="-100"/>
      <point x="250" y="-55"/>
    </contour>
  </outline>
</glyph>
<glyph name="H" format="1">
  <advance width="900"/>
  <unicode hex="0048"/>
  <outline>
    <contour>
      <point x="750" y="-104" type="curve" smooth="yes"/>
      <point x="804" y="-104"/>
      <point x="850" y="-58"/>
      <point x="850" y="-4" type="curve" smooth="yes"/>
      <point x="850" y="696" type="line" smooth="yes"/>
      <point x="850" y="807"/>
      <point x="716" y="841"/>
      <point x="663" y="744" type="curve" smooth="yes"/>
      <point x="524" y="494" type="line"/>
      <point x="250" y="477" type="line"/>
      <point x="250" y="736" type="line"/>
      <point x="250" y="796" type="line" smooth="yes"/>
      <point x="250" y="850"/>
      <point x="204" y="896"/>
      <point x="150" y="896" type="curve" smooth="yes"/>
      <point x="96" y="896"/>
      <point x="50" y="850"/>
      <point x="50" y="796" type="curve" smooth="yes"/>
      <point x="50" y="736" type="line"/>
      <point x="50" y="385" type="line"/>
      <point x="52" y="45" type="line" smooth="yes"/>
      <point x="52" y="-76"/>
      <point x="218" y="-97"/>
      <point x="249" y="21" type="curve" smooth="yes"/>
      <point x="316" y="280" type="line"/>
      <point x="591" y="298" type="line" smooth="yes"/>
      <point x="610" y="299"/>
      <point x="633" y="309"/>
      <point x="650" y="323" type="curve"/>
      <point x="650" y="-4" type="line" smooth="yes"/>
      <point x="650" y="-58"/>
      <point x="696" y="-104"/>
    </contour>
  </outline>
</glyph>
<glyph name="N" format="1">
  <advance width="900"/>
  <unicode hex="004E"/>
  <outline>
    <contour>
      <point x="250" y="-1" type="curve" smooth="yes"/>
      <point x="250" y="109" type="line"/>
      <point x="250" y="456" type="line"/>
      <point x="255" y="621" type="line"/>
      <point x="350" y="562" type="line"/>
      <point x="350" y="279" type="line" smooth="yes"/>
      <point x="350" y="248"/>
      <point x="372" y="209"/>
      <point x="399" y="193" type="curve" smooth="yes"/>
      <point x="699" y="13" type="line" smooth="yes"/>
      <point x="771" y="-30"/>
      <point x="850" y="15"/>
      <point x="850" y="99" type="curve" smooth="yes"/>
      <point x="850" y="799" type="line" smooth="yes"/>
      <point x="850" y="853"/>
      <point x="804" y="899"/>
      <point x="750" y="899" type="curve" smooth="yes"/>
      <point x="696" y="899"/>
      <point x="650" y="853"/>
      <point x="650" y="799" type="curve" smooth="yes"/>
      <point x="650" y="276" type="line"/>
      <point x="550" y="336" type="line"/>
      <point x="550" y="617" type="line" smooth="yes"/>
      <point x="550" y="647"/>
      <point x="529" y="685"/>
      <point x="503" y="701" type="curve" smooth="yes"/>
      <point x="213" y="884" type="line" smooth="yes"/>
      <point x="142" y="928"/>
      <point x="63" y="886"/>
      <point x="60" y="802" type="curve" smooth="yes"/>
      <point x="50" y="462" type="line"/>
      <point x="50" y="109" type="line"/>
      <point x="50" y="-1" type="line" smooth="yes"/>
      <point x="50" y="-55"/>
      <point x="96" y="-101"/>
      <point x="150" y="-101" type="curve" smooth="yes"/>
      <point x="204" y="-101"/>
      <point x="250" y="-55"/>
    </contour>
  </outline>
</glyph>
<glyph name="O" format="1">
  <advance width="901"/>
  <unicode hex="004F"/>
  <outline>
    <contour>
      <point x="502" y="99" type="line"/>
      <point x="403" y="99" type="line"/>
      <point x="250" y="311" type="line"/>
      <point x="250" y="563" type="line"/>
      <point x="450" y="683" type="line"/>
      <point x="651" y="569" type="line"/>
      <point x="651" y="311" type="line"/>
    </contour>
    <contour>
      <point x="544" y="-101" type="line" smooth="yes"/>
      <point x="547" y="-101"/>
      <point x="551" y="-101"/>
      <point x="554" y="-100" type="curve"/>
      <point x="586" y="-100"/>
      <point x="617" y="-85"/>
      <point x="636" y="-59" type="curve" smooth="yes"/>
      <point x="833" y="221" type="line" smooth="yes"/>
      <point x="843" y="236"/>
      <point x="851" y="262"/>
      <point x="851" y="279" type="curve" smooth="yes"/>
      <point x="851" y="627" type="line" smooth="yes"/>
      <point x="851" y="659"/>
      <point x="828" y="698"/>
      <point x="800" y="714" type="curve" smooth="yes"/>
      <point x="498" y="886" type="line" smooth="yes"/>
      <point x="470" y="902"/>
      <point x="425" y="901"/>
      <point x="397" y="885" type="curve" smooth="yes"/>
      <point x="98" y="705" type="line" smooth="yes"/>
      <point x="72" y="689"/>
      <point x="50" y="651"/>
      <point x="50" y="619" type="curve" smooth="yes"/>
      <point x="50" y="279" type="line" smooth="yes"/>
      <point x="50" y="261"/>
      <point x="58" y="235"/>
      <point x="69" y="220" type="curve" smooth="yes"/>
      <point x="271" y="-60" type="line" smooth="yes"/>
      <point x="287" y="-82"/>
      <point x="324" y="-101"/>
      <point x="352" y="-101" type="curve" smooth="yes"/>
    </contour>
  </outline>
</glyph>
<glyph name="Q" format="1">
  <advance width="901"/>
  <unicode hex="0051"/>
  <outline>
    <contour>
      <point x="350" y="-101" type="curve" smooth="yes"/>
      <point x="541" y="-101" type="line" smooth="yes"/>
      <point x="544" y="-101"/>
      <point x="548" y="-101"/>
      <point x="551" y="-100" type="curve"/>
      <point x="583" y="-100"/>
      <point x="613" y="-86"/>
      <point x="632" y="-59" type="curve" smooth="yes"/>
      <point x="832" y="221" type="line" smooth="yes"/>
      <point x="843" y="235"/>
      <point x="851" y="261"/>
      <point x="851" y="279" type="curve" smooth="yes"/>
      <point x="851" y="627" type="line" smooth="yes"/>
      <point x="851" y="659"/>
      <point x="828" y="698"/>
      <point x="800" y="714" type="curve" smooth="yes"/>
      <point x="498" y="886" type="line" smooth="yes"/>
      <point x="470" y="902"/>
      <point x="425" y="901"/>
      <point x="397" y="885" type="curve" smooth="yes"/>
      <point x="98" y="705" type="line" smooth="yes"/>
      <point x="72" y="689"/>
      <point x="50" y="651"/>
      <point x="50" y="619" type="curve" smooth="yes"/>
      <point x="50" y="279" type="line" smooth="yes"/>
      <point x="50" y="261"/>
      <point x="58" y="235"/>
      <point x="69" y="221" type="curve" smooth="yes"/>
      <point x="269" y="-59" type="line" smooth="yes"/>
      <point x="285" y="-82"/>
      <point x="322" y="-101"/>
    </contour>
    <contour>
      <point x="500" y="99" type="line"/>
      <point x="401" y="99" type="line"/>
      <point x="250" y="311" type="line"/>
      <point x="250" y="563" type="line"/>
      <point x="450" y="683" type="line"/>
      <point x="651" y="569" type="line"/>
      <point x="651" y="311" type="line"/>
    </contour>
  </outline>
</glyph>
<glyph name="R" format="1">
  <advance width="901"/>
  <unicode hex="0052"/>
  <outline>
    <contour>
      <point x="350" y="396" type="line" smooth="yes"/>
      <point x="251" y="396" type="line"/>
      <point x="257" y="614" type="line"/>
      <point x="467" y="684" type="line"/>
      <point x="616" y="559" type="line"/>
      <point x="500" y="396" type="line"/>
      <point x="350" y="396" type="line"/>
    </contour>
    <contour>
      <point x="250" y="-4" type="curve" smooth="yes"/>
      <point x="250" y="196" type="line"/>
      <point x="515" y="196" type="line"/>
      <point x="665" y="-55" type="line" smooth="yes"/>
      <point x="693" y="-102"/>
      <point x="756" y="-118"/>
      <point x="802" y="-90" type="curve" smooth="yes"/>
      <point x="849" y="-62"/>
      <point x="865" y="1"/>
      <point x="837" y="47" type="curve" smooth="yes"/>
      <point x="682" y="307" type="line"/>
      <point x="832" y="518" type="line" smooth="yes"/>
      <point x="862" y="559"/>
      <point x="854" y="620"/>
      <point x="815" y="653" type="curve" smooth="yes"/>
      <point x="553" y="873" type="line" smooth="yes"/>
      <point x="529" y="892"/>
      <point x="487" y="901"/>
      <point x="457" y="891" type="curve" smooth="yes"/>
      <point x="127" y="782" type="line" smooth="yes"/>
      <point x="90" y="770"/>
      <point x="59" y="728"/>
      <point x="58" y="689" type="curve" smooth="yes"/>
      <point x="50" y="348" type="line"/>
      <point x="50" y="-4" type="line" smooth="yes"/>
      <point x="50" y="-58"/>
      <point x="96" y="-104"/>
      <point x="150" y="-104" type="curve" smooth="yes"/>
      <point x="204" y="-104"/>
      <point x="250" y="-58"/>
    </contour>
  </outline>
</glyph>
<glyph name="T" format="1">
  <advance width="612"/>
  <unicode hex="0054"/>
  <outline>
    <contour>
      <point x="450" y="-100" type="curve" smooth="yes"/>
      <point x="504" y="-100"/>
      <point x="550" y="-54"/>
      <point x="550" y="0" type="curve" smooth="yes"/>
      <point x="550" y="350" type="line"/>
      <point x="562" y="693" type="line" smooth="yes"/>
      <point x="564" y="734"/>
      <point x="533" y="779"/>
      <point x="494" y="792" type="curve" smooth="yes"/>
      <point x="181" y="895" type="line" smooth="yes"/>
      <point x="130" y="912"/>
      <point x="72" y="883"/>
      <point x="55" y="831" type="curve" smooth="yes"/>
      <point x="38" y="780"/>
      <point x="67" y="722"/>
      <point x="119" y="705" type="curve" smooth="yes"/>
      <point x="360" y="625" type="line"/>
      <point x="350" y="350" type="line"/>
      <point x="350" y="0" type="line" smooth="yes"/>
      <point x="350" y="-54"/>
      <point x="396" y="-100"/>
    </contour>
  </outline>
</glyph>
<glyph name="U" format="1">
  <advance width="899"/>
  <unicode hex="0055"/>
  <outline>
    <contour>
      <point x="441" y="-97" type="curve" smooth="yes"/>
      <point x="768" y="4" type="line" smooth="yes"/>
      <point x="805" y="16"/>
      <point x="837" y="57"/>
      <point x="838" y="96" type="curve" smooth="yes"/>
      <point x="849" y="449" type="line"/>
      <point x="849" y="799" type="line" smooth="yes"/>
      <point x="849" y="853"/>
      <point x="803" y="899"/>
      <point x="749" y="899" type="curve" smooth="yes"/>
      <point x="695" y="899"/>
      <point x="649" y="853"/>
      <point x="649" y="799" type="curve" smooth="yes"/>
      <point x="649" y="449" type="line"/>
      <point x="641" y="174" type="line"/>
      <point x="436" y="111" type="line"/>
      <point x="250" y="274" type="line"/>
      <point x="250" y="799" type="line" smooth="yes"/>
      <point x="250" y="853"/>
      <point x="204" y="899"/>
      <point x="150" y="899" type="curve" smooth="yes"/>
      <point x="96" y="899"/>
      <point x="50" y="853"/>
      <point x="50" y="799" type="curve" smooth="yes"/>
      <point x="50" y="229" type="line" smooth="yes"/>
      <point x="50" y="204"/>
      <point x="65" y="170"/>
      <point x="84" y="154" type="curve" smooth="yes"/>
      <point x="346" y="-76" type="line" smooth="yes"/>
      <point x="369" y="-96"/>
      <point x="412" y="-106"/>
    </contour>
  </outline>
</glyph>
<glyph name="X" format="1">
  <advance width="900"/>
  <unicode hex="0058"/>
  <outline>
    <contour>
      <point x="250" y="0" type="curve" smooth="yes"/>
      <point x="250" y="102" type="line"/>
      <point x="416" y="291" type="line"/>
      <point x="620" y="258" type="line"/>
      <point x="651" y="-11" type="line" smooth="yes"/>
      <point x="657" y="-65"/>
      <point x="707" y="-105"/>
      <point x="761" y="-99" type="curve" smooth="yes"/>
      <point x="815" y="-93"/>
      <point x="855" y="-43"/>
      <point x="849" y="11" type="curve" smooth="yes"/>
      <point x="811" y="356" type="line" smooth="yes"/>
      <point x="809" y="371"/>
      <point x="803" y="385"/>
      <point x="795" y="398" type="curve"/>
      <point x="805" y="412"/>
      <point x="812" y="428"/>
      <point x="814" y="445" type="curve" smooth="yes"/>
      <point x="849" y="790" type="line" smooth="yes"/>
      <point x="855" y="843"/>
      <point x="814" y="894"/>
      <point x="760" y="899" type="curve" smooth="yes"/>
      <point x="707" y="905"/>
      <point x="656" y="864"/>
      <point x="651" y="810" type="curve" smooth="yes"/>
      <point x="623" y="542" type="line"/>
      <point x="413" y="507" type="line"/>
      <point x="250" y="706" type="line"/>
      <point x="250" y="800" type="line" smooth="yes"/>
      <point x="250" y="854"/>
      <point x="204" y="900"/>
      <point x="150" y="900" type="curve" smooth="yes"/>
      <point x="96" y="900"/>
      <point x="50" y="854"/>
      <point x="50" y="800" type="curve" smooth="yes"/>
      <point x="50" y="670" type="line" smooth="yes"/>
      <point x="50" y="650"/>
      <point x="60" y="622"/>
      <point x="73" y="607" type="curve" smooth="yes"/>
      <point x="244" y="398" type="line"/>
      <point x="75" y="206" type="line" smooth="yes"/>
      <point x="61" y="190"/>
      <point x="50" y="161"/>
      <point x="50" y="140" type="curve" smooth="yes"/>
      <point x="50" y="0" type="line" smooth="yes"/>
      <point x="50" y="-54"/>
      <point x="96" y="-100"/>
      <point x="150" y="-100" type="curve" smooth="yes"/>
      <point x="204" y="-100"/>
      <point x="250" y="-54"/>
    </contour>
  </outline>
</glyph>
<glyph name="Y" format="1">
  <advance width="899"/>
  <unicode hex="0059"/>
  <outline>
    <contour>
      <point x="449" y="-100" type="line" smooth="yes"/>
      <point x="464" y="-100"/>
      <point x="486" y="-94"/>
      <point x="498" y="-87" type="curve" smooth="yes"/>
      <point x="797" y="79" type="line" smooth="yes"/>
      <point x="827" y="96"/>
      <point x="849" y="136"/>
      <point x="849" y="169" type="curve" smooth="yes"/>
      <point x="839" y="511" type="line" smooth="yes"/>
      <point x="837" y="599"/>
      <point x="750" y="641"/>
      <point x="679" y="588" type="curve" smooth="yes"/>
      <point x="452" y="415" type="line"/>
      <point x="251" y="516" type="line"/>
      <point x="250" y="798" type="line" smooth="yes"/>
      <point x="250" y="852"/>
      <point x="204" y="898"/>
      <point x="150" y="898" type="curve" smooth="yes"/>
      <point x="96" y="898"/>
      <point x="50" y="852"/>
      <point x="50" y="798" type="curve" smooth="yes"/>
      <point x="51" y="454" type="line" smooth="yes"/>
      <point x="51" y="420"/>
      <point x="76" y="381"/>
      <point x="106" y="365" type="curve" smooth="yes"/>
      <point x="418" y="209" type="line" smooth="yes"/>
      <point x="448" y="193"/>
      <point x="496" y="198"/>
      <point x="523" y="218" type="curve" smooth="yes"/>
      <point x="645" y="311" type="line"/>
      <point x="647" y="224" type="line"/>
      <point x="424" y="100" type="line"/>
      <point x="150" y="101" type="line" smooth="yes"/>
      <point x="96" y="101"/>
      <point x="50" y="55"/>
      <point x="50" y="1" type="curve" smooth="yes"/>
      <point x="50" y="-53"/>
      <point x="96" y="-99"/>
      <point x="150" y="-99" type="curve" smooth="yes"/>
    </contour>
  </outline>
</glyph>
<glyph name="bracketleft" format="1">
  <advance width="600"/>
  <unicode hex="005B"/>
  <outline>
    <contour>
      <point x="360" y="-100" type="curve" smooth="yes"/>
      <point x="450" y="-100" type="line" smooth="yes"/>
      <point x="504" y="-100"/>
      <point x="550" y="-54"/>
      <point x="550" y="0" type="curve" smooth="yes"/>
      <point x="550" y="54"/>
      <point x="504" y="100"/>
      <point x="450" y="100" type="curve" smooth="yes"/>
      <point x="410" y="100" type="line"/>
      <point x="250" y="313" type="line"/>
      <point x="250" y="563" type="line"/>
      <point x="501" y="714" type="line" smooth="yes"/>
      <point x="548" y="742"/>
      <point x="564" y="805"/>
      <point x="536" y="851" type="curve" smooth="yes"/>
      <point x="508" y="898"/>
      <point x="445" y="914"/>
      <point x="399" y="886" type="curve" smooth="yes"/>
      <point x="99" y="706" type="line" smooth="yes"/>
      <point x="72" y="690"/>
      <point x="50" y="651"/>
      <point x="50" y="620" type="curve"/>
      <point x="50" y="280" type="line" smooth="yes"/>
      <point x="50" y="262"/>
      <point x="59" y="235"/>
      <point x="70" y="220" type="curve" smooth="yes"/>
      <point x="280" y="-60" type="line" smooth="yes"/>
      <point x="297" y="-82"/>
      <point x="332" y="-100"/>
    </contour>
  </outline>
</glyph>
<glyph name="bracketright" format="1">
  <advance width="600"/>
  <unicode hex="005D"/>
  <outline>
    <contour>
      <point x="150" y="-101" type="curve" smooth="yes"/>
      <point x="240" y="-101" type="line" smooth="yes"/>
      <point x="268" y="-101"/>
      <point x="303" y="-83"/>
      <point x="320" y="-61" type="curve" smooth="yes"/>
      <point x="530" y="219" type="line" smooth="yes"/>
      <point x="541" y="234"/>
      <point x="550" y="261"/>
      <point x="550" y="279" type="curve" smooth="yes"/>
      <point x="550" y="619" type="line" smooth="yes"/>
      <point x="550" y="650"/>
      <point x="528" y="689"/>
      <point x="501" y="705" type="curve" smooth="yes"/>
      <point x="201" y="885" type="line" smooth="yes"/>
      <point x="155" y="913"/>
      <point x="92" y="897"/>
      <point x="64" y="850" type="curve" smooth="yes"/>
      <point x="36" y="804"/>
      <point x="52" y="741"/>
      <point x="99" y="713" type="curve" smooth="yes"/>
      <point x="350" y="562" type="line"/>
      <point x="350" y="312" type="line"/>
      <point x="190" y="99" type="line"/>
      <point x="150" y="99" type="line" smooth="yes"/>
      <point x="96" y="99"/>
      <point x="50" y="53"/>
      <point x="50" y="-1" type="curve" smooth="yes"/>
      <point x="50" y="-55"/>
      <point x="96" y="-101"/>
    </contour>
  </outline>
</glyph>
<glyph name="asciicircum" format="1">
  <advance width="898"/>
  <unicode hex="005E"/>
  <outline>
    <contour>
      <point x="204" y="419" type="curve" smooth="yes"/>
      <point x="435" y="573" type="line"/>
      <point x="681" y="427" type="line"/>
      <point x="694" y="419" type="line" smooth="yes"/>
      <point x="738" y="389"/>
      <point x="802" y="402"/>
      <point x="832" y="447" type="curve" smooth="yes"/>
      <point x="862" y="491"/>
      <point x="849" y="555"/>
      <point x="804" y="585" type="curve" smooth="yes"/>
      <point x="783" y="599" type="line"/>
      <point x="483" y="777" type="line" smooth="yes"/>
      <point x="453" y="795"/>
      <point x="406" y="793"/>
      <point x="377" y="774" type="curve" smooth="yes"/>
      <point x="94" y="585" type="line" smooth="yes"/>
      <point x="49" y="555"/>
      <point x="36" y="491"/>
      <point x="66" y="447" type="curve" smooth="yes"/>
      <point x="96" y="402"/>
      <point x="160" y="389"/>
    </contour>
  </outline>
</glyph>
<glyph name="a" format="1">
  <advance width="900"/>
  <unicode hex="0061"/>
  <outline>
    <contour>
      <point x="750" y="-104" type="curve" smooth="yes"/>
      <point x="804" y="-104"/>
      <point x="850" y="-58"/>
      <point x="850" y="-4" type="curve" smooth="yes"/>
      <point x="850" y="499" type="line" smooth="yes"/>
      <point x="850" y="515"/>
      <point x="843" y="538"/>
      <point x="835" y="552" type="curve" smooth="yes"/>
      <point x="654" y="848" type="line" smooth="yes"/>
      <point x="637" y="876"/>
      <point x="596" y="897"/>
      <point x="563" y="895" type="curve" smooth="yes"/>
      <point x="228" y="876" type="line" smooth="yes"/>
      <point x="187" y="874"/>
      <point x="147" y="840"/>
      <point x="137" y="800" type="curve" smooth="yes"/>
      <point x="53" y="463" type="line" smooth="yes"/>
      <point x="51" y="456"/>
      <point x="50" y="445"/>
      <point x="50" y="438" type="curve" smooth="yes"/>
      <point x="55" y="97" type="line" smooth="yes"/>
      <point x="56" y="1"/>
      <point x="158" y="-40"/>
      <point x="226" y="28" type="curve" smooth="yes"/>
      <point x="442" y="246" type="line"/>
      <point x="650" y="246" type="line"/>
      <point x="650" y="-4" type="line" smooth="yes"/>
      <point x="650" y="-58"/>
      <point x="696" y="-104"/>
    </contour>
    <contour>
      <point x="329" y="416" type="curve" smooth="yes"/>
      <point x="251" y="338" type="line"/>
      <point x="250" y="427" type="line"/>
      <point x="313" y="681" type="line"/>
      <point x="515" y="692" type="line"/>
      <point x="650" y="471" type="line"/>
      <point x="650" y="446" type="line"/>
      <point x="400" y="446" type="line" smooth="yes"/>
      <point x="377" y="446"/>
      <point x="345" y="433"/>
    </contour>
  </outline>
</glyph>
<glyph name="f" format="1">
  <advance width="899"/>
  <unicode hex="0066"/>
  <outline>
    <contour>
      <point x="250" y="-3" type="curve" smooth="yes"/>
      <point x="271" y="309" type="line" smooth="yes"/>
      <point x="271" y="313"/>
      <point x="271" y="318"/>
      <point x="271" y="322" type="curve" smooth="yes"/>
      <point x="269" y="346" type="line"/>
      <point x="288" y="321"/>
      <point x="317" y="304"/>
      <point x="350" y="304" type="curve" smooth="yes"/>
      <point x="550" y="304" type="line" smooth="yes"/>
      <point x="604" y="304"/>
      <point x="650" y="350"/>
      <point x="650" y="404" type="curve" smooth="yes"/>
      <point x="650" y="458"/>
      <point x="604" y="504"/>
      <point x="550" y="504" type="curve" smooth="yes"/>
      <point x="350" y="504" type="line" smooth="yes"/>
      <point x="314" y="504"/>
      <point x="281" y="483"/>
      <point x="264" y="453" type="curve"/>
      <point x="256" y="598" type="line"/>
      <point x="457" y="689" type="line"/>
      <point x="691" y="524" type="line" smooth="yes"/>
      <point x="736" y="493"/>
      <point x="800" y="504"/>
      <point x="831" y="548" type="curve" smooth="yes"/>
      <point x="862" y="593"/>
      <point x="851" y="657"/>
      <point x="807" y="688" type="curve" smooth="yes"/>
      <point x="525" y="886" type="line" smooth="yes"/>
      <point x="499" y="904"/>
      <point x="455" y="908"/>
      <point x="426" y="895" type="curve" smooth="yes"/>
      <point x="111" y="752" type="line" smooth="yes"/>
      <point x="76" y="737"/>
      <point x="50" y="693"/>
      <point x="52" y="656" type="curve" smooth="yes"/>
      <point x="71" y="317" type="line"/>
      <point x="50" y="11" type="line" smooth="yes"/>
      <point x="47" y="-43"/>
      <point x="89" y="-92"/>
      <point x="143" y="-96" type="curve" smooth="yes"/>
      <point x="197" y="-99"/>
      <point x="246" y="-57"/>
    </contour>
  </outline>
</glyph>
<glyph name="g" format="1">
  <advance width="900"/>
  <unicode hex="0067"/>
  <outline>
    <contour>
      <point x="646" y="-84" type="line" smooth="yes"/>
      <point x="685" y="-83"/>
      <point x="726" y="-52"/>
      <point x="738" y="-15" type="curve" smooth="yes"/>
      <point x="845" y="313" type="line" smooth="yes"/>
      <point x="863" y="368"/>
      <point x="832" y="425"/>
      <point x="776" y="441" type="curve" smooth="yes"/>
      <point x="491" y="518" type="line"/>
      <point x="443" y="641" type="line" smooth="yes"/>
      <point x="438" y="653"/>
      <point x="431" y="664"/>
      <point x="421" y="674" type="curve"/>
      <point x="457" y="689" type="line"/>
      <point x="692" y="522" type="line" smooth="yes"/>
      <point x="736" y="491"/>
      <point x="800" y="502"/>
      <point x="832" y="546" type="curve" smooth="yes"/>
      <point x="863" y="590"/>
      <point x="852" y="654"/>
      <point x="808" y="686" type="curve" smooth="yes"/>
      <point x="526" y="886" type="line" smooth="yes"/>
      <point x="500" y="904"/>
      <point x="456" y="908"/>
      <point x="427" y="895" type="curve" smooth="yes"/>
      <point x="111" y="754" type="line" smooth="yes"/>
      <point x="79" y="740"/>
      <point x="52" y="699"/>
      <point x="52" y="663" type="curve" smooth="yes"/>
      <point x="50" y="315" type="line" smooth="yes"/>
      <point x="50" y="302"/>
      <point x="55" y="281"/>
      <point x="60" y="270" type="curve" smooth="yes"/>
      <point x="212" y="-37" type="line" smooth="yes"/>
      <point x="228" y="-69"/>
      <point x="269" y="-94"/>
      <point x="304" y="-93" type="curve" smooth="yes"/>
    </contour>
    <contour>
      <point x="257" y="567" type="curve" smooth="yes"/>
      <point x="324" y="398" type="line" smooth="yes"/>
      <point x="334" y="372"/>
      <point x="364" y="345"/>
      <point x="391" y="338" type="curve" smooth="yes"/>
      <point x="622" y="275" type="line"/>
      <point x="570" y="114" type="line"/>
      <point x="363" y="109" type="line"/>
      <point x="250" y="337" type="line"/>
      <point x="252" y="586" type="line"/>
      <point x="253" y="580"/>
      <point x="255" y="574"/>
    </contour>
  </outline>
</glyph>
<glyph name="i" format="1">
  <advance width="900"/>
  <unicode hex="0069"/>
  <outline>
    <contour>
      <point x="150" y="-101" type="curve" smooth="yes"/>
      <point x="500" y="-101" type="line" smooth="yes"/>
      <point x="563" y="-101"/>
      <point x="608" y="-49"/>
      <point x="599" y="14" type="curve" smooth="yes"/>
      <point x="550" y="347" type="line"/>
      <point x="543" y="612" type="line"/>
      <point x="786" y="706" type="line" smooth="yes"/>
      <point x="836" y="725"/>
      <point x="863" y="785"/>
      <point x="843" y="835" type="curve" smooth="yes"/>
      <point x="824" y="885"/>
      <point x="764" y="912"/>
      <point x="714" y="892" type="curve" smooth="yes"/>
      <point x="405" y="773" type="line" smooth="yes"/>
      <point x="369" y="759"/>
      <point x="340" y="716"/>
      <point x="341" y="677" type="curve" smooth="yes"/>
      <point x="350" y="336" type="line" smooth="yes"/>
      <point x="350" y="333"/>
      <point x="351" y="327"/>
      <point x="351" y="324" type="curve" smooth="yes"/>
      <point x="384" y="99" type="line"/>
      <point x="150" y="99" type="line" smooth="yes"/>
      <point x="96" y="99"/>
      <point x="50" y="53"/>
      <point x="50" y="-1" type="curve" smooth="yes"/>
      <point x="50" y="-55"/>
      <point x="96" y="-101"/>
    </contour>
  </outline>
</glyph>
<glyph name="j" format="1">
  <advance width="900"/>
  <unicode hex="006A"/>
  <outline>
    <contour>
      <point x="187" y="-94" type="curve" smooth="yes"/>
      <point x="480" y="22" type="line" smooth="yes"/>
      <point x="514" y="35"/>
      <point x="542" y="76"/>
      <point x="543" y="113" type="curve" smooth="yes"/>
      <point x="550" y="457" type="line" smooth="yes"/>
      <point x="550" y="462"/>
      <point x="550" y="469"/>
      <point x="549" y="474" type="curve" smooth="yes"/>
      <point x="516" y="699" type="line"/>
      <point x="750" y="699" type="line" smooth="yes"/>
      <point x="804" y="699"/>
      <point x="850" y="745"/>
      <point x="850" y="799" type="curve" smooth="yes"/>
      <point x="850" y="853"/>
      <point x="804" y="899"/>
      <point x="750" y="899" type="curve" smooth="yes"/>
      <point x="400" y="899" type="line" smooth="yes"/>
      <point x="337" y="899"/>
      <point x="292" y="847"/>
      <point x="301" y="784" type="curve" smooth="yes"/>
      <point x="350" y="453" type="line"/>
      <point x="344" y="183" type="line"/>
      <point x="113" y="92" type="line" smooth="yes"/>
      <point x="63" y="72"/>
      <point x="37" y="12"/>
      <point x="57" y="-38" type="curve" smooth="yes"/>
      <point x="77" y="-88"/>
      <point x="137" y="-114"/>
    </contour>
  </outline>
</glyph>
<glyph name="k" format="1">
  <advance width="900"/>
  <unicode hex="006B"/>
  <outline>
    <contour>
      <point x="761" y="-95" type="curve" smooth="yes"/>
      <point x="814" y="-90"/>
      <point x="855" y="-39"/>
      <point x="849" y="15" type="curve" smooth="yes"/>
      <point x="813" y="358" type="line" smooth="yes"/>
      <point x="809" y="400"/>
      <point x="771" y="439"/>
      <point x="730" y="446" type="curve" smooth="yes"/>
      <point x="706" y="450" type="line"/>
      <point x="831" y="626" type="line" smooth="yes"/>
      <point x="841" y="640"/>
      <point x="849" y="666"/>
      <point x="849" y="684" type="curve" smooth="yes"/>
      <point x="850" y="804" type="line" smooth="yes"/>
      <point x="850" y="857"/>
      <point x="804" y="904"/>
      <point x="750" y="904" type="curve" smooth="yes"/>
      <point x="697" y="904"/>
      <point x="650" y="858"/>
      <point x="650" y="804" type="curve" smooth="yes"/>
      <point x="650" y="716" type="line"/>
      <point x="486" y="486" type="line"/>
      <point x="386" y="503" type="line" smooth="yes"/>
      <point x="354" y="508"/>
      <point x="312" y="492"/>
      <point x="292" y="466" type="curve" smooth="yes"/>
      <point x="251" y="415" type="line"/>
      <point x="250" y="476" type="line"/>
      <point x="250" y="804" type="line" smooth="yes"/>
      <point x="250" y="858"/>
      <point x="204" y="904"/>
      <point x="150" y="904" type="curve" smooth="yes"/>
      <point x="96" y="904"/>
      <point x="50" y="858"/>
      <point x="50" y="804" type="curve" smooth="yes"/>
      <point x="50" y="472" type="line"/>
      <point x="56" y="132" type="line" smooth="yes"/>
      <point x="58" y="30"/>
      <point x="171" y="-8"/>
      <point x="234" y="72" type="curve" smooth="yes"/>
      <point x="412" y="296" type="line"/>
      <point x="622" y="261" type="line"/>
      <point x="651" y="-7" type="line" smooth="yes"/>
      <point x="656" y="-60"/>
      <point x="707" y="-101"/>
    </contour>
  </outline>
</glyph>
<glyph name="l" format="1">
  <advance width="900"/>
  <unicode hex="006C"/>
  <outline>
    <contour>
      <point x="490" y="-100" type="curve" smooth="yes"/>
      <point x="750" y="-100" type="line" smooth="yes"/>
      <point x="804" y="-100"/>
      <point x="850" y="-54"/>
      <point x="850" y="0" type="curve" smooth="yes"/>
      <point x="850" y="54"/>
      <point x="804" y="100"/>
      <point x="750" y="100" type="curve" smooth="yes"/>
      <point x="506" y="100" type="line"/>
      <point x="259" y="182" type="line"/>
      <point x="250" y="450" type="line"/>
      <point x="250" y="800" type="line" smooth="yes"/>
      <point x="250" y="854"/>
      <point x="204" y="900"/>
      <point x="150" y="900" type="curve" smooth="yes"/>
      <point x="96" y="900"/>
      <point x="50" y="854"/>
      <point x="50" y="800" type="curve" smooth="yes"/>
      <point x="50" y="450" type="line"/>
      <point x="62" y="105" type="line" smooth="yes"/>
      <point x="63" y="67"/>
      <point x="94" y="26"/>
      <point x="130" y="14" type="curve" smooth="yes"/>
      <point x="459" y="-95" type="line" smooth="yes"/>
      <point x="467" y="-98"/>
      <point x="481" y="-100"/>
    </contour>
  </outline>
</glyph>
<glyph name="m" format="1">
  <advance width="900"/>
  <unicode hex="006D"/>
  <outline>
    <contour>
      <point x="750" y="-101" type="curve" smooth="yes"/>
      <point x="804" y="-101"/>
      <point x="850" y="-55"/>
      <point x="850" y="-1" type="curve" smooth="yes"/>
      <point x="850" y="699" type="line" smooth="yes"/>
      <point x="850" y="784"/>
      <point x="770" y="829"/>
      <point x="698" y="784" type="curve" smooth="yes"/>
      <point x="481" y="652" type="line"/>
      <point x="331" y="858" type="line" smooth="yes"/>
      <point x="278" y="931"/>
      <point x="180" y="914"/>
      <point x="154" y="828" type="curve" smooth="yes"/>
      <point x="54" y="498" type="line" smooth="yes"/>
      <point x="52" y="490"/>
      <point x="50" y="477"/>
      <point x="50" y="469" type="curve" smooth="yes"/>
      <point x="50" y="-1" type="line" smooth="yes"/>
      <point x="50" y="-55"/>
      <point x="96" y="-101"/>
      <point x="150" y="-101" type="curve" smooth="yes"/>
      <point x="204" y="-101"/>
      <point x="250" y="-55"/>
      <point x="250" y="-1" type="curve" smooth="yes"/>
      <point x="250" y="454" type="line"/>
      <point x="288" y="578" type="line"/>
      <point x="374" y="460" type="line" smooth="yes"/>
      <point x="404" y="419"/>
      <point x="464" y="407"/>
      <point x="507" y="434" type="curve" smooth="yes"/>
      <point x="650" y="521" type="line"/>
      <point x="650" y="-1" type="line" smooth="yes"/>
      <point x="650" y="-55"/>
      <point x="696" y="-101"/>
    </contour>
  </outline>
</glyph>
<glyph name="p" format="1">
  <advance width="898"/>
  <unicode hex="0070"/>
  <outline>
    <contour>
      <point x="150" y="-97" type="curve" smooth="yes"/>
      <point x="204" y="-97"/>
      <point x="250" y="-51"/>
      <point x="250" y="3" type="curve" smooth="yes"/>
      <point x="250" y="49" type="line"/>
      <point x="481" y="220" type="line"/>
      <point x="789" y="356" type="line" smooth="yes"/>
      <point x="832" y="375"/>
      <point x="857" y="427"/>
      <point x="845" y="472" type="curve" smooth="yes"/>
      <point x="760" y="808" type="line" smooth="yes"/>
      <point x="750" y="847"/>
      <point x="709" y="880"/>
      <point x="669" y="883" type="curve" smooth="yes"/>
      <point x="336" y="902" type="line" smooth="yes"/>
      <point x="303" y="904"/>
      <point x="262" y="883"/>
      <point x="244" y="854" type="curve" smooth="yes"/>
      <point x="64" y="555" type="line" smooth="yes"/>
      <point x="56" y="541"/>
      <point x="50" y="518"/>
      <point x="50" y="503" type="curve" smooth="yes"/>
      <point x="50" y="3" type="line" smooth="yes"/>
      <point x="50" y="-51"/>
      <point x="96" y="-97"/>
    </contour>
    <contour>
      <point x="390" y="398" type="line" smooth="yes"/>
      <point x="384" y="396"/>
      <point x="376" y="391"/>
      <point x="371" y="387" type="curve" smooth="yes"/>
      <point x="250" y="298" type="line"/>
      <point x="250" y="475" type="line"/>
      <point x="385" y="699" type="line"/>
      <point x="584" y="687" type="line"/>
      <point x="631" y="505" type="line"/>
    </contour>
  </outline>
</glyph>
<glyph name="s" format="1">
  <advance width="901"/>
  <unicode hex="0073"/>
  <outline>
    <contour>
      <point x="616" y="-91" type="line" smooth="yes"/>
      <point x="656" y="-91"/>
      <point x="699" y="-59"/>
      <point x="711" y="-21" type="curve" smooth="yes"/>
      <point x="816" y="309" type="line" smooth="yes"/>
      <point x="835" y="368"/>
      <point x="800" y="426"/>
      <point x="739" y="437" type="curve" smooth="yes"/>
      <point x="433" y="496" type="line"/>
      <point x="317" y="627" type="line"/>
      <point x="457" y="689" type="line"/>
      <point x="693" y="522" type="line" smooth="yes"/>
      <point x="737" y="491"/>
      <point x="801" y="502"/>
      <point x="833" y="546" type="curve" smooth="yes"/>
      <point x="864" y="590"/>
      <point x="853" y="654"/>
      <point x="809" y="686" type="curve" smooth="yes"/>
      <point x="526" y="886" type="line" smooth="yes"/>
      <point x="501" y="904"/>
      <point x="457" y="908"/>
      <point x="428" y="895" type="curve" smooth="yes"/>
      <point x="111" y="754" type="line" smooth="yes"/>
      <point x="46" y="725"/>
      <point x="30" y="650"/>
      <point x="77" y="597" type="curve" smooth="yes"/>
      <point x="305" y="338" type="line" smooth="yes"/>
      <point x="318" y="324"/>
      <point x="343" y="309"/>
      <point x="361" y="306" type="curve" smooth="yes"/>
      <point x="591" y="262" type="line"/>
      <point x="543" y="110" type="line"/>
      <point x="323" y="111" type="line"/>
      <point x="236" y="256" type="line" smooth="yes"/>
      <point x="208" y="302"/>
      <point x="145" y="318"/>
      <point x="98" y="290" type="curve" smooth="yes"/>
      <point x="52" y="262"/>
      <point x="36" y="199"/>
      <point x="64" y="152" type="curve" smooth="yes"/>
      <point x="181" y="-41" type="line" smooth="yes"/>
      <point x="197" y="-67"/>
      <point x="235" y="-89"/>
      <point x="266" y="-89" type="curve" smooth="yes"/>
    </contour>
  </outline>
</glyph>
<glyph name="v" format="1">
  <advance width="900"/>
  <unicode hex="0076"/>
  <outline>
    <contour>
      <point x="709" y="-33" type="curve" smooth="yes"/>
      <point x="842" y="281" type="line" smooth="yes"/>
      <point x="846" y="291"/>
      <point x="850" y="309"/>
      <point x="850" y="320" type="curve" smooth="yes"/>
      <point x="850" y="800" type="line" smooth="yes"/>
      <point x="850" y="854"/>
      <point x="804" y="900"/>
      <point x="750" y="900" type="curve" smooth="yes"/>
      <point x="696" y="900"/>
      <point x="650" y="854"/>
      <point x="650" y="800" type="curve" smooth="yes"/>
      <point x="650" y="340" type="line"/>
      <point x="565" y="140" type="line"/>
      <point x="381" y="225" type="line"/>
      <point x="250" y="475" type="line"/>
      <point x="250" y="800" type="line" smooth="yes"/>
      <point x="250" y="854"/>
      <point x="204" y="900"/>
      <point x="150" y="900" type="curve" smooth="yes"/>
      <point x="96" y="900"/>
      <point x="50" y="854"/>
      <point x="50" y="800" type="curve" smooth="yes"/>
      <point x="50" y="450" type="line" smooth="yes"/>
      <point x="50" y="436"/>
      <point x="55" y="416"/>
      <point x="61" y="404" type="curve" smooth="yes"/>
      <point x="219" y="102" type="line" smooth="yes"/>
      <point x="228" y="85"/>
      <point x="249" y="66"/>
      <point x="266" y="58" type="curve" smooth="yes"/>
      <point x="575" y="-85" type="line" smooth="yes"/>
      <point x="627" y="-109"/>
      <point x="687" y="-86"/>
    </contour>
  </outline>
</glyph>
<glyph name="w" format="1">
  <advance width="900"/>
  <unicode hex="0077"/>
  <outline>
    <contour>
      <point x="746" y="-29" type="curve" smooth="yes"/>
      <point x="846" y="301" type="line" smooth="yes"/>
      <point x="848" y="309"/>
      <point x="850" y="322"/>
      <point x="850" y="330" type="curve" smooth="yes"/>
      <point x="850" y="800" type="line" smooth="yes"/>
      <point x="850" y="854"/>
      <point x="804" y="900"/>
      <point x="750" y="900" type="curve" smooth="yes"/>
      <point x="696" y="900"/>
      <point x="650" y="854"/>
      <point x="650" y="800" type="curve" smooth="yes"/>
      <point x="650" y="345" type="line"/>
      <point x="612" y="221" type="line"/>
      <point x="526" y="339" type="line" smooth="yes"/>
      <point x="496" y="380"/>
      <point x="437" y="392"/>
      <point x="394" y="365" type="curve" smooth="yes"/>
      <point x="250" y="278" type="line"/>
      <point x="250" y="800" type="line" smooth="yes"/>
      <point x="250" y="854"/>
      <point x="204" y="900"/>
      <point x="150" y="900" type="curve" smooth="yes"/>
      <point x="96" y="900"/>
      <point x="50" y="854"/>
      <point x="50" y="800" type="curve" smooth="yes"/>
      <point x="50" y="100" type="line"/>
      <point x="50" y="15"/>
      <point x="130" y="-29"/>
      <point x="202" y="15" type="curve" smooth="yes"/>
      <point x="419" y="147" type="line"/>
      <point x="569" y="-59" type="line" smooth="yes"/>
      <point x="622" y="-132"/>
      <point x="720" y="-115"/>
    </contour>
  </outline>
</glyph>
<glyph name="z" format="1">
  <advance width="900"/>
  <unicode hex="007A"/>
  <outline>
    <contour>
      <point x="470" y="-100" type="curve" smooth="yes"/>
      <point x="750" y="-100" type="line" smooth="yes"/>
      <point x="804" y="-100"/>
      <point x="850" y="-54"/>
      <point x="850" y="0" type="curve" smooth="yes"/>
      <point x="850" y="54"/>
      <point x="804" y="100"/>
      <point x="750" y="100" type="curve" smooth="yes"/>
      <point x="517" y="100" type="line"/>
      <point x="398" y="245" type="line"/>
      <point x="589" y="372" type="line" smooth="yes"/>
      <point x="616" y="391"/>
      <point x="636" y="432"/>
      <point x="633" y="465" type="curve" smooth="yes"/>
      <point x="600" y="810" type="line" smooth="yes"/>
      <point x="595" y="860"/>
      <point x="550" y="900"/>
      <point x="500" y="900" type="curve" smooth="yes"/>
      <point x="150" y="900" type="line" smooth="yes"/>
      <point x="96" y="900"/>
      <point x="50" y="854"/>
      <point x="50" y="800" type="curve" smooth="yes"/>
      <point x="50" y="746"/>
      <point x="96" y="700"/>
      <point x="150" y="700" type="curve" smooth="yes"/>
      <point x="409" y="700" type="line"/>
      <point x="428" y="506" type="line"/>
      <point x="195" y="350" type="line" smooth="yes"/>
      <point x="144" y="316"/>
      <point x="134" y="250"/>
      <point x="173" y="203" type="curve" smooth="yes"/>
      <point x="393" y="-64" type="line" smooth="yes"/>
      <point x="409" y="-84"/>
      <point x="444" y="-100"/>
    </contour>
  </outline>
</glyph>
<glyph name="braceleft" format="1">
  <advance width="605"/>
  <unicode hex="007B"/>
  <outline>
    <contour>
      <point x="365" y="-102" type="curve" smooth="yes"/>
      <point x="455" y="-102" type="line" smooth="yes"/>
      <point x="509" y="-102"/>
      <point x="555" y="-56"/>
      <point x="555" y="-2" type="curve" smooth="yes"/>
      <point x="555" y="52"/>
      <point x="509" y="98"/>
      <point x="455" y="98" type="curve" smooth="yes"/>
      <point x="414" y="98" type="line"/>
      <point x="250" y="307" type="line"/>
      <point x="254" y="561" type="line"/>
      <point x="506" y="712" type="line" smooth="yes"/>
      <point x="553" y="740"/>
      <point x="569" y="803"/>
      <point x="541" y="849" type="curve" smooth="yes"/>
      <point x="513" y="896"/>
      <point x="450" y="912"/>
      <point x="404" y="884" type="curve" smooth="yes"/>
      <point x="104" y="704" type="line" smooth="yes"/>
      <point x="77" y="689"/>
      <point x="56" y="651"/>
      <point x="55" y="620" type="curve" smooth="yes"/>
      <point x="50" y="275" type="line" smooth="yes"/>
      <point x="50" y="255"/>
      <point x="59" y="227"/>
      <point x="71" y="212" type="curve" smooth="yes"/>
      <point x="286" y="-64" type="line" smooth="yes"/>
      <point x="303" y="-85"/>
      <point x="338" y="-102"/>
    </contour>
  </outline>
</glyph>
<glyph name="braceright" format="1">
  <advance width="605"/>
  <unicode hex="007D"/>
  <outline>
    <contour>
      <point x="150" y="-101" type="curve" smooth="yes"/>
      <point x="240" y="-101" type="line" smooth="yes"/>
      <point x="267" y="-101"/>
      <point x="302" y="-84"/>
      <point x="319" y="-63" type="curve" smooth="yes"/>
      <point x="534" y="213" type="line" smooth="yes"/>
      <point x="546" y="228"/>
      <point x="555" y="256"/>
      <point x="555" y="276" type="curve" smooth="yes"/>
      <point x="550" y="621" type="line" smooth="yes"/>
      <point x="549" y="652"/>
      <point x="528" y="690"/>
      <point x="501" y="705" type="curve" smooth="yes"/>
      <point x="201" y="885" type="line" smooth="yes"/>
      <point x="155" y="913"/>
      <point x="92" y="897"/>
      <point x="64" y="850" type="curve" smooth="yes"/>
      <point x="36" y="804"/>
      <point x="52" y="741"/>
      <point x="99" y="713" type="curve" smooth="yes"/>
      <point x="351" y="562" type="line"/>
      <point x="355" y="308" type="line"/>
      <point x="191" y="99" type="line"/>
      <point x="150" y="99" type="line" smooth="yes"/>
      <point x="96" y="99"/>
      <point x="50" y="53"/>
      <point x="50" y="-1" type="curve" smooth="yes"/>
      <point x="50" y="-55"/>
      <point x="96" y="-101"/>
    </contour>
  </outline>
</glyph>
<glyph name="asciitilde" format="1">
  <advance width="899"/>
  <unicode hex="007E"/>
  <outline>
    <contour>
      <point x="207" y="22" type="curve" smooth="yes"/>
      <point x="461" y="203" type="line"/>
      <point x="749" y="203" type="line" smooth="yes"/>
      <point x="803" y="203"/>
      <point x="849" y="249"/>
      <point x="849" y="303" type="curve" smooth="yes"/>
      <point x="849" y="357"/>
      <point x="803" y="403"/>
      <point x="749" y="403" type="curve" smooth="yes"/>
      <point x="429" y="403" type="line" smooth="yes"/>
      <point x="411" y="403"/>
      <point x="385" y="395"/>
      <point x="371" y="384" type="curve" smooth="yes"/>
      <point x="91" y="184" type="line" smooth="yes"/>
      <point x="47" y="153"/>
      <point x="36" y="89"/>
      <point x="68" y="45" type="curve" smooth="yes"/>
      <point x="99" y="1"/>
      <point x="163" y="-10"/>
    </contour>
  </outline>
</glyph>
<glyph name="cent" format="1">
  <advance width="645"/>
  <unicode hex="00A2"/>
  <outline>
    <contour>
      <point x="395" y="-200" type="curve" smooth="yes"/>
      <point x="449" y="-200"/>
      <point x="495" y="-154"/>
      <point x="495" y="-100" type="curve" smooth="yes"/>
      <point x="495" y="-100" type="line"/>
      <point x="547" y="-100"/>
      <point x="592" y="-57"/>
      <point x="595" y="-5" type="curve" smooth="yes"/>
      <point x="598" y="49"/>
      <point x="554" y="97"/>
      <point x="500" y="100" type="curve" smooth="yes"/>
      <point x="281" y="111" type="line"/>
      <point x="262" y="274" type="line"/>
      <point x="506" y="301" type="line" smooth="yes"/>
      <point x="559" y="306"/>
      <point x="600" y="357"/>
      <point x="594" y="411" type="curve" smooth="yes"/>
      <point x="589" y="461"/>
      <point x="545" y="500"/>
      <point x="495" y="500" type="curve"/>
      <point x="495" y="500" type="line" smooth="yes"/>
      <point x="495" y="554"/>
      <point x="449" y="600"/>
      <point x="395" y="600" type="curve" smooth="yes"/>
      <point x="341" y="600"/>
      <point x="295" y="554"/>
      <point x="295" y="500" type="curve" smooth="yes"/>
      <point x="295" y="479" type="line"/>
      <point x="140" y="462" type="line" smooth="yes"/>
      <point x="84" y="456"/>
      <point x="44" y="406"/>
      <point x="51" y="351" type="curve" smooth="yes"/>
      <point x="93" y="4" type="line" smooth="yes"/>
      <point x="98" y="-42"/>
      <point x="140" y="-82"/>
      <point x="187" y="-84" type="curve" smooth="yes"/>
      <point x="295" y="-90" type="line"/>
      <point x="295" y="-100" type="line" smooth="yes"/>
      <point x="295" y="-154"/>
      <point x="341" y="-200"/>
    </contour>
  </outline>
</glyph>
<glyph name="sterling" format="1">
  <advance width="651"/>
  <unicode hex="00A3"/>
  <outline>
    <contour>
      <point x="152" y="-99" type="curve" smooth="yes"/>
      <point x="501" y="-99" type="line" smooth="yes"/>
      <point x="555" y="-99"/>
      <point x="601" y="-53"/>
      <point x="601" y="1" type="curve" smooth="yes"/>
      <point x="601" y="55"/>
      <point x="555" y="101"/>
      <point x="501" y="101" type="curve" smooth="yes"/>
      <point x="310" y="101" type="line"/>
      <point x="391" y="272" type="line" smooth="yes"/>
      <point x="395" y="279"/>
      <point x="398" y="290"/>
      <point x="400" y="301" type="curve"/>
      <point x="451" y="301" type="line" smooth="yes"/>
      <point x="505" y="301"/>
      <point x="551" y="347"/>
      <point x="551" y="401" type="curve" smooth="yes"/>
      <point x="551" y="455"/>
      <point x="505" y="501"/>
      <point x="451" y="501" type="curve" smooth="yes"/>
      <point x="403" y="501" type="line"/>
      <point x="404" y="601" type="line"/>
      <point x="562" y="721" type="line" smooth="yes"/>
      <point x="605" y="754"/>
      <point x="613" y="819"/>
      <point x="581" y="862" type="curve" smooth="yes"/>
      <point x="548" y="905"/>
      <point x="483" y="913"/>
      <point x="440" y="881" type="curve" smooth="yes"/>
      <point x="244" y="731" type="line" smooth="yes"/>
      <point x="222" y="714"/>
      <point x="204" y="679"/>
      <point x="204" y="652" type="curve" smooth="yes"/>
      <point x="203" y="501" type="line"/>
      <point x="151" y="501" type="line" smooth="yes"/>
      <point x="97" y="501"/>
      <point x="51" y="455"/>
      <point x="51" y="401" type="curve" smooth="yes"/>
      <point x="51" y="347"/>
      <point x="97" y="301"/>
      <point x="151" y="301" type="curve" smooth="yes"/>
      <point x="184" y="301" type="line"/>
      <point x="61" y="44" type="line" smooth="yes"/>
      <point x="27" y="-28"/>
      <point x="72" y="-99"/>
    </contour>
  </outline>
</glyph>
<glyph name="section" format="1">
  <advance width="904"/>
  <unicode hex="00A7"/>
  <outline>
    <contour>
      <point x="486" y="-87" type="curve" smooth="yes"/>
      <point x="793" y="63" type="line" smooth="yes"/>
      <point x="874" y="103"/>
      <point x="874" y="202"/>
      <point x="794" y="242" type="curve" smooth="yes"/>
      <point x="776" y="251" type="line"/>
      <point x="772" y="265"/>
      <point x="767" y="277"/>
      <point x="758" y="289" type="curve" smooth="yes"/>
      <point x="545" y="560" type="line" smooth="yes"/>
      <point x="537" y="570"/>
      <point x="522" y="582"/>
      <point x="511" y="588" type="curve" smooth="yes"/>
      <point x="381" y="652" type="line"/>
      <point x="454" y="688" type="line"/>
      <point x="674" y="541" type="line"/>
      <point x="693" y="518"/>
      <point x="721" y="503"/>
      <point x="752" y="503" type="curve" smooth="yes"/>
      <point x="806" y="503"/>
      <point x="852" y="549"/>
      <point x="852" y="603" type="curve" smooth="yes"/>
      <point x="852" y="610" type="line" smooth="yes"/>
      <point x="852" y="639"/>
      <point x="832" y="676"/>
      <point x="807" y="693" type="curve" smooth="yes"/>
      <point x="517" y="886" type="line" smooth="yes"/>
      <point x="491" y="904"/>
      <point x="447" y="907"/>
      <point x="418" y="893" type="curve" smooth="yes"/>
      <point x="111" y="743" type="line" smooth="yes"/>
      <point x="30" y="703"/>
      <point x="30" y="604"/>
      <point x="110" y="564" type="curve" smooth="yes"/>
      <point x="128" y="555" type="line"/>
      <point x="132" y="541"/>
      <point x="137" y="529"/>
      <point x="146" y="517" type="curve" smooth="yes"/>
      <point x="359" y="246" type="line" smooth="yes"/>
      <point x="367" y="236"/>
      <point x="382" y="224"/>
      <point x="393" y="218" type="curve" smooth="yes"/>
      <point x="523" y="154" type="line"/>
      <point x="450" y="118" type="line"/>
      <point x="230" y="265" type="line"/>
      <point x="211" y="288"/>
      <point x="183" y="303"/>
      <point x="152" y="303" type="curve" smooth="yes"/>
      <point x="98" y="303"/>
      <point x="52" y="257"/>
      <point x="52" y="203" type="curve" smooth="yes"/>
      <point x="52" y="196" type="line" smooth="yes"/>
      <point x="52" y="167"/>
      <point x="72" y="130"/>
      <point x="97" y="113" type="curve" smooth="yes"/>
      <point x="387" y="-80" type="line" smooth="yes"/>
      <point x="413" y="-98"/>
      <point x="457" y="-101"/>
    </contour>
  </outline>
</glyph>
<glyph name="guillemotleft" format="1">
  <advance width="557"/>
  <unicode hex="00AB"/>
  <outline>
    <contour>
      <point x="478" y="-74" type="curve" smooth="yes"/>
      <point x="516" y="-36"/>
      <point x="516" y="30"/>
      <point x="478" y="68" type="curve" smooth="yes"/>
      <point x="457" y="88" type="line"/>
      <point x="506" y="381" type="line" smooth="yes"/>
      <point x="515" y="434"/>
      <point x="477" y="487"/>
      <point x="423" y="496" type="curve" smooth="yes"/>
      <point x="370" y="505"/>
      <point x="317" y="467"/>
      <point x="308" y="413" type="curve" smooth="yes"/>
      <point x="307" y="403" type="line"/>
      <point x="303" y="448"/>
      <point x="269" y="488"/>
      <point x="223" y="496" type="curve" smooth="yes"/>
      <point x="170" y="505"/>
      <point x="117" y="467"/>
      <point x="108" y="413" type="curve" smooth="yes"/>
      <point x="51" y="71" type="line" smooth="yes"/>
      <point x="47" y="43"/>
      <point x="59" y="4"/>
      <point x="79" y="-17" type="curve" smooth="yes"/>
      <point x="136" y="-74" type="line" smooth="yes"/>
      <point x="174" y="-112"/>
      <point x="240" y="-112"/>
      <point x="278" y="-74" type="curve" smooth="yes"/>
      <point x="288" y="-63"/>
      <point x="296" y="-51"/>
      <point x="300" y="-38" type="curve"/>
      <point x="336" y="-74" type="line" smooth="yes"/>
      <point x="374" y="-112"/>
      <point x="440" y="-112"/>
    </contour>
  </outline>
</glyph>
<glyph name="plusminus" format="1">
  <advance width="700"/>
  <unicode hex="00B1"/>
  <outline>
    <contour>
      <point x="350" y="97" type="curve" smooth="yes"/>
      <point x="404" y="97"/>
      <point x="450" y="143"/>
      <point x="450" y="197" type="curve" smooth="yes"/>
      <point x="450" y="297" type="line"/>
      <point x="550" y="297" type="line" smooth="yes"/>
      <point x="604" y="297"/>
      <point x="650" y="343"/>
      <point x="650" y="397" type="curve" smooth="yes"/>
      <point x="650" y="451"/>
      <point x="604" y="497"/>
      <point x="550" y="497" type="curve" smooth="yes"/>
      <point x="450" y="497" type="line"/>
      <point x="450" y="597" type="line" smooth="yes"/>
      <point x="450" y="651"/>
      <point x="404" y="697"/>
      <point x="350" y="697" type="curve" smooth="yes"/>
      <point x="296" y="697"/>
      <point x="250" y="651"/>
      <point x="250" y="597" type="curve" smooth="yes"/>
      <point x="250" y="497" type="line"/>
      <point x="150" y="497" type="line" smooth="yes"/>
      <point x="96" y="497"/>
      <point x="50" y="451"/>
      <point x="50" y="397" type="curve" smooth="yes"/>
      <point x="50" y="343"/>
      <point x="96" y="297"/>
      <point x="150" y="297" type="curve" smooth="yes"/>
      <point x="250" y="297" type="line"/>
      <point x="250" y="197" type="line" smooth="yes"/>
      <point x="250" y="143"/>
      <point x="296" y="97"/>
    </contour>
    <contour>
      <point x="150" y="-103" type="curve" smooth="yes"/>
      <point x="550" y="-103" type="line" smooth="yes"/>
      <point x="604" y="-103"/>
      <point x="650" y="-57"/>
      <point x="650" y="-3" type="curve" smooth="yes"/>
      <point x="650" y="51"/>
      <point x="604" y="97"/>
      <point x="550" y="97" type="curve" smooth="yes"/>
      <point x="150" y="97" type="line" smooth="yes"/>
      <point x="96" y="97"/>
      <point x="50" y="51"/>
      <point x="50" y="-3" type="curve" smooth="yes"/>
      <point x="50" y="-57"/>
      <point x="96" y="-103"/>
    </contour>
  </outline>
</glyph>
<glyph name="acute" format="1">
  <advance width="598"/>
  <unicode hex="00B4"/>
  <outline>
    <contour>
      <point x="66" y="873" type="curve" smooth="yes"/>
      <point x="96" y="828"/>
      <point x="160" y="815"/>
      <point x="204" y="845" type="curve" smooth="yes"/>
      <point x="488" y="1034" type="line"/>
      <point x="504" y="1045" type="line" smooth="yes"/>
      <point x="549" y="1075"/>
      <point x="562" y="1139"/>
      <point x="532" y="1183" type="curve" smooth="yes"/>
      <point x="502" y="1228"/>
      <point x="438" y="1241"/>
      <point x="394" y="1211" type="curve" smooth="yes"/>
      <point x="377" y="1200" type="line"/>
      <point x="94" y="1011" type="line" smooth="yes"/>
      <point x="49" y="981"/>
      <point x="36" y="917"/>
    </contour>
  </outline>
</glyph>
<glyph name="paragraph" format="1">
  <advance width="758"/>
  <unicode hex="00B6"/>
  <outline>
    <contour>
      <point x="608" y="-100" type="curve" smooth="yes"/>
      <point x="662" y="-100"/>
      <point x="708" y="-54"/>
      <point x="708" y="0" type="curve" smooth="yes"/>
      <point x="708" y="480" type="line" smooth="yes"/>
      <point x="708" y="490"/>
      <point x="705" y="506"/>
      <point x="702" y="515" type="curve" smooth="yes"/>
      <point x="582" y="835" type="line" smooth="yes"/>
      <point x="566" y="877"/>
      <point x="517" y="906"/>
      <point x="473" y="899" type="curve" smooth="yes"/>
      <point x="135" y="848" type="line" smooth="yes"/>
      <point x="78" y="840"/>
      <point x="41" y="787"/>
      <point x="52" y="730" type="curve" smooth="yes"/>
      <point x="118" y="390" type="line" smooth="yes"/>
      <point x="137" y="294"/>
      <point x="246" y="273"/>
      <point x="300" y="354" type="curve" smooth="yes"/>
      <point x="308" y="366" type="line"/>
      <point x="308" y="0" type="line" smooth="yes"/>
      <point x="308" y="-54"/>
      <point x="354" y="-100"/>
      <point x="408" y="-100" type="curve" smooth="yes"/>
      <point x="462" y="-100"/>
      <point x="508" y="-54"/>
      <point x="508" y="0" type="curve" smooth="yes"/>
      <point x="508" y="-54"/>
      <point x="554" y="-100"/>
    </contour>
  </outline>
</glyph>
<glyph name="guillemotright" format="1">
  <advance width="557"/>
  <unicode hex="00BB"/>
  <outline>
    <contour>
      <point x="421" y="-70" type="curve" smooth="yes"/>
      <point x="478" y="-13" type="line" smooth="yes"/>
      <point x="498" y="8"/>
      <point x="510" y="47"/>
      <point x="506" y="75" type="curve" smooth="yes"/>
      <point x="449" y="417" type="line" smooth="yes"/>
      <point x="440" y="471"/>
      <point x="387" y="509"/>
      <point x="334" y="500" type="curve" smooth="yes"/>
      <point x="288" y="492"/>
      <point x="254" y="452"/>
      <point x="250" y="407" type="curve"/>
      <point x="249" y="417" type="line" smooth="yes"/>
      <point x="240" y="471"/>
      <point x="187" y="509"/>
      <point x="134" y="500" type="curve" smooth="yes"/>
      <point x="80" y="491"/>
      <point x="42" y="438"/>
      <point x="51" y="385" type="curve" smooth="yes"/>
      <point x="100" y="92" type="line"/>
      <point x="79" y="72" type="line" smooth="yes"/>
      <point x="41" y="34"/>
      <point x="41" y="-32"/>
      <point x="79" y="-70" type="curve" smooth="yes"/>
      <point x="117" y="-108"/>
      <point x="183" y="-108"/>
      <point x="221" y="-70" type="curve" smooth="yes"/>
      <point x="257" y="-34" type="line"/>
      <point x="261" y="-47"/>
      <point x="269" y="-59"/>
      <point x="279" y="-70" type="curve" smooth="yes"/>
      <point x="317" y="-108"/>
      <point x="383" y="-108"/>
    </contour>
  </outline>
</glyph>
<glyph name="Ccedilla" format="1">
  <advance width="900"/>
  <unicode hex="00C7"/>
  <outline>
    <contour>
      <point x="697" y="-62" type="line" smooth="yes"/>
      <point x="736" y="-61"/>
      <point x="777" y="-30"/>
      <point x="789" y="6" type="curve" smooth="yes"/>
      <point x="845" y="169" type="line" smooth="yes"/>
      <point x="862" y="220"/>
      <point x="833" y="278"/>
      <point x="782" y="296" type="curve" smooth="yes"/>
      <point x="731" y="313"/>
      <point x="673" y="284"/>
      <point x="655" y="233" type="curve" smooth="yes"/>
      <point x="622" y="136" type="line"/>
      <point x="401" y="130" type="line"/>
      <point x="250" y="344" type="line"/>
      <point x="251" y="591" type="line"/>
      <point x="457" y="686" type="line"/>
      <point x="692" y="519" type="line" smooth="yes"/>
      <point x="736" y="488"/>
      <point x="800" y="499"/>
      <point x="832" y="543" type="curve" smooth="yes"/>
      <point x="863" y="587"/>
      <point x="852" y="651"/>
      <point x="808" y="683" type="curve" smooth="yes"/>
      <point x="526" y="883" type="line" smooth="yes"/>
      <point x="500" y="901"/>
      <point x="455" y="905"/>
      <point x="426" y="892" type="curve" smooth="yes"/>
      <point x="110" y="746" type="line" smooth="yes"/>
      <point x="78" y="731"/>
      <point x="51" y="691"/>
      <point x="51" y="656" type="curve" smooth="yes"/>
      <point x="50" y="312" type="line" smooth="yes"/>
      <point x="50" y="295"/>
      <point x="58" y="269"/>
      <point x="68" y="254" type="curve" smooth="yes"/>
      <point x="268" y="-29" type="line" smooth="yes"/>
      <point x="285" y="-53"/>
      <point x="323" y="-72"/>
      <point x="352" y="-71" type="curve" smooth="yes"/>
    </contour>
  </outline>
</glyph>
<glyph name="Egrave" format="1">
  <advance width="904"/>
  <unicode hex="00C8"/>
  <outline>
    <contour>
      <point x="554" y="-100" type="line" smooth="yes"/>
      <point x="561" y="-100"/>
      <point x="568" y="-99"/>
      <point x="575" y="-98" type="curve"/>
      <point x="594" y="-94"/>
      <point x="612" y="-85"/>
      <point x="626" y="-71" type="curve" smooth="yes"/>
      <point x="824" y="125" type="line" smooth="yes"/>
      <point x="863" y="163"/>
      <point x="863" y="228"/>
      <point x="825" y="266" type="curve" smooth="yes"/>
      <point x="787" y="305"/>
      <point x="722" y="305"/>
      <point x="684" y="267" type="curve" smooth="yes"/>
      <point x="515" y="100" type="line"/>
      <point x="495" y="100" type="line"/>
      <point x="323" y="173" type="line"/>
      <point x="460" y="338" type="line" smooth="yes"/>
      <point x="490" y="374"/>
      <point x="489" y="432"/>
      <point x="457" y="468" type="curve" smooth="yes"/>
      <point x="321" y="622" type="line"/>
      <point x="461" y="685" type="line"/>
      <point x="695" y="520" type="line" smooth="yes"/>
      <point x="740" y="489"/>
      <point x="804" y="500"/>
      <point x="835" y="544" type="curve" smooth="yes"/>
      <point x="866" y="589"/>
      <point x="855" y="653"/>
      <point x="811" y="684" type="curve" smooth="yes"/>
      <point x="535" y="877" type="line"/>
      <point x="561" y="922"/>
      <point x="548" y="982"/>
      <point x="504" y="1011" type="curve" smooth="yes"/>
      <point x="221" y="1200" type="line"/>
      <point x="204" y="1211" type="line" smooth="yes"/>
      <point x="160" y="1241"/>
      <point x="96" y="1228"/>
      <point x="66" y="1183" type="curve" smooth="yes"/>
      <point x="36" y="1139"/>
      <point x="49" y="1075"/>
      <point x="94" y="1045" type="curve" smooth="yes"/>
      <point x="110" y="1034" type="line"/>
      <point x="367" y="862" type="line"/>
      <point x="115" y="748" type="line" smooth="yes"/>
      <point x="50" y="719"/>
      <point x="34" y="644"/>
      <point x="81" y="591" type="curve" smooth="yes"/>
      <point x="251" y="399" type="line"/>
      <point x="83" y="197" type="line" smooth="yes"/>
      <point x="38" y="142"/>
      <point x="56" y="69"/>
      <point x="122" y="41" type="curve" smooth="yes"/>
      <point x="436" y="-92" type="line" smooth="yes"/>
      <point x="447" y="-96"/>
      <point x="464" y="-100"/>
      <point x="475" y="-100" type="curve" smooth="yes"/>
    </contour>
  </outline>
</glyph>
<glyph name="Eacute" format="1">
  <advance width="899"/>
  <unicode hex="00C9"/>
  <outline>
    <contour>
      <point x="550" y="-100" type="line" smooth="yes"/>
      <point x="557" y="-100"/>
      <point x="564" y="-99"/>
      <point x="571" y="-98" type="curve"/>
      <point x="590" y="-94"/>
      <point x="608" y="-85"/>
      <point x="622" y="-71" type="curve" smooth="yes"/>
      <point x="820" y="125" type="line" smooth="yes"/>
      <point x="859" y="163"/>
      <point x="859" y="228"/>
      <point x="821" y="266" type="curve" smooth="yes"/>
      <point x="783" y="305"/>
      <point x="718" y="305"/>
      <point x="680" y="267" type="curve" smooth="yes"/>
      <point x="511" y="100" type="line"/>
      <point x="491" y="100" type="line"/>
      <point x="319" y="173" type="line"/>
      <point x="456" y="338" type="line" smooth="yes"/>
      <point x="486" y="374"/>
      <point x="485" y="432"/>
      <point x="453" y="468" type="curve" smooth="yes"/>
      <point x="317" y="622" type="line"/>
      <point x="457" y="685" type="line"/>
      <point x="691" y="520" type="line" smooth="yes"/>
      <point x="736" y="489"/>
      <point x="800" y="500"/>
      <point x="831" y="544" type="curve" smooth="yes"/>
      <point x="862" y="589"/>
      <point x="851" y="653"/>
      <point x="807" y="684" type="curve" smooth="yes"/>
      <point x="540" y="871" type="line"/>
      <point x="784" y="1034" type="line"/>
      <point x="800" y="1045" type="line" smooth="yes"/>
      <point x="845" y="1075"/>
      <point x="858" y="1139"/>
      <point x="828" y="1183" type="curve" smooth="yes"/>
      <point x="798" y="1228"/>
      <point x="734" y="1241"/>
      <point x="690" y="1211" type="curve" smooth="yes"/>
      <point x="673" y="1200" type="line"/>
      <point x="390" y="1011" type="line" smooth="yes"/>
      <point x="345" y="981"/>
      <point x="332" y="917"/>
      <point x="362" y="873" type="curve" smooth="yes"/>
      <point x="364" y="870"/>
      <point x="366" y="867"/>
      <point x="368" y="865" type="curve"/>
      <point x="111" y="748" type="line" smooth="yes"/>
      <point x="46" y="719"/>
      <point x="30" y="644"/>
      <point x="77" y="591" type="curve" smooth="yes"/>
      <point x="247" y="399" type="line"/>
      <point x="79" y="197" type="line" smooth="yes"/>
      <point x="34" y="142"/>
      <point x="52" y="69"/>
      <point x="118" y="41" type="curve" smooth="yes"/>
      <point x="432" y="-92" type="line" smooth="yes"/>
      <point x="443" y="-96"/>
      <point x="460" y="-100"/>
      <point x="471" y="-100" type="curve" smooth="yes"/>
    </contour>
  </outline>
</glyph>
<glyph name="Ecircumflex" format="1">
  <advance width="904"/>
  <unicode hex="00CA"/>
  <outline>
    <contour>
      <point x="204" y="845" type="curve" smooth="yes"/>
      <point x="435" y="999" type="line"/>
      <point x="681" y="853" type="line"/>
      <point x="694" y="845" type="line" smooth="yes"/>
      <point x="738" y="815"/>
      <point x="802" y="828"/>
      <point x="832" y="873" type="curve" smooth="yes"/>
      <point x="862" y="917"/>
      <point x="849" y="981"/>
      <point x="804" y="1011" type="curve" smooth="yes"/>
      <point x="783" y="1025" type="line"/>
      <point x="483" y="1203" type="line" smooth="yes"/>
      <point x="453" y="1221"/>
      <point x="406" y="1219"/>
      <point x="377" y="1200" type="curve" smooth="yes"/>
      <point x="94" y="1011" type="line" smooth="yes"/>
      <point x="49" y="981"/>
      <point x="36" y="917"/>
      <point x="66" y="873" type="curve" smooth="yes"/>
      <point x="96" y="828"/>
      <point x="160" y="815"/>
    </contour>
    <contour>
      <point x="554" y="-100" type="line" smooth="yes"/>
      <point x="561" y="-100"/>
      <point x="568" y="-99"/>
      <point x="575" y="-98" type="curve"/>
      <point x="594" y="-94"/>
      <point x="612" y="-85"/>
      <point x="626" y="-71" type="curve" smooth="yes"/>
      <point x="824" y="125" type="line" smooth="yes"/>
      <point x="863" y="163"/>
      <point x="863" y="228"/>
      <point x="825" y="266" type="curve" smooth="yes"/>
      <point x="787" y="305"/>
      <point x="722" y="305"/>
      <point x="684" y="267" type="curve" smooth="yes"/>
      <point x="515" y="100" type="line"/>
      <point x="495" y="100" type="line"/>
      <point x="323" y="173" type="line"/>
      <point x="460" y="338" type="line" smooth="yes"/>
      <point x="490" y="374"/>
      <point x="489" y="432"/>
      <point x="457" y="468" type="curve" smooth="yes"/>
      <point x="321" y="622" type="line"/>
      <point x="461" y="685" type="line"/>
      <point x="695" y="520" type="line" smooth="yes"/>
      <point x="740" y="489"/>
      <point x="804" y="500"/>
      <point x="835" y="544" type="curve" smooth="yes"/>
      <point x="866" y="589"/>
      <point x="855" y="653"/>
      <point x="811" y="684" type="curve" smooth="yes"/>
      <point x="529" y="882" type="line" smooth="yes"/>
      <point x="503" y="900"/>
      <point x="459" y="904"/>
      <point x="430" y="891" type="curve" smooth="yes"/>
      <point x="115" y="748" type="line" smooth="yes"/>
      <point x="50" y="719"/>
      <point x="34" y="644"/>
      <point x="81" y="591" type="curve" smooth="yes"/>
      <point x="251" y="399" type="line"/>
      <point x="83" y="197" type="line" smooth="yes"/>
      <point x="38" y="142"/>
      <point x="56" y="69"/>
      <point x="122" y="41" type="curve" smooth="yes"/>
      <point x="436" y="-92" type="line" smooth="yes"/>
      <point x="447" y="-96"/>
      <point x="464" y="-100"/>
      <point x="475" y="-100" type="curve" smooth="yes"/>
    </contour>
  </outline>
</glyph>
<glyph name="Iacute" format="1">
  <advance width="903"/>
  <unicode hex="00CD"/>
  <outline>
    <contour>
      <point x="371" y="873" type="curve" smooth="yes"/>
      <point x="401" y="828"/>
      <point x="465" y="815"/>
      <point x="509" y="845" type="curve" smooth="yes"/>
      <point x="793" y="1034" type="line"/>
      <point x="809" y="1045" type="line" smooth="yes"/>
      <point x="854" y="1075"/>
      <point x="867" y="1139"/>
      <point x="837" y="1183" type="curve" smooth="yes"/>
      <point x="807" y="1228"/>
      <point x="743" y="1241"/>
      <point x="699" y="1211" type="curve" smooth="yes"/>
      <point x="682" y="1200" type="line"/>
      <point x="399" y="1011" type="line" smooth="yes"/>
      <point x="354" y="981"/>
      <point x="341" y="917"/>
    </contour>
    <contour>
      <point x="150" y="-101" type="curve" smooth="yes"/>
      <point x="500" y="-101" type="line" smooth="yes"/>
      <point x="563" y="-101"/>
      <point x="608" y="-49"/>
      <point x="599" y="14" type="curve" smooth="yes"/>
      <point x="550" y="347" type="line"/>
      <point x="543" y="612" type="line"/>
      <point x="786" y="706" type="line" smooth="yes"/>
      <point x="836" y="725"/>
      <point x="863" y="785"/>
      <point x="843" y="835" type="curve" smooth="yes"/>
      <point x="824" y="885"/>
      <point x="764" y="912"/>
      <point x="714" y="892" type="curve" smooth="yes"/>
      <point x="405" y="773" type="line" smooth="yes"/>
      <point x="369" y="759"/>
      <point x="340" y="716"/>
      <point x="341" y="677" type="curve" smooth="yes"/>
      <point x="350" y="336" type="line" smooth="yes"/>
      <point x="350" y="333"/>
      <point x="351" y="327"/>
      <point x="351" y="324" type="curve" smooth="yes"/>
      <point x="384" y="99" type="line"/>
      <point x="150" y="99" type="line" smooth="yes"/>
      <point x="96" y="99"/>
      <point x="50" y="53"/>
      <point x="50" y="-1" type="curve" smooth="yes"/>
      <point x="50" y="-55"/>
      <point x="96" y="-101"/>
    </contour>
  </outline>
</glyph>
<glyph name="Icircumflex" format="1">
  <advance width="903"/>
  <unicode hex="00CE"/>
  <outline>
    <contour>
      <point x="150" y="-101" type="curve" smooth="yes"/>
      <point x="500" y="-101" type="line" smooth="yes"/>
      <point x="563" y="-101"/>
      <point x="608" y="-49"/>
      <point x="599" y="14" type="curve" smooth="yes"/>
      <point x="550" y="347" type="line"/>
      <point x="543" y="612" type="line"/>
      <point x="786" y="706" type="line" smooth="yes"/>
      <point x="836" y="725"/>
      <point x="863" y="785"/>
      <point x="843" y="835" type="curve" smooth="yes"/>
      <point x="840" y="845"/>
      <point x="834" y="853"/>
      <point x="828" y="861" type="curve"/>
      <point x="831" y="865"/>
      <point x="834" y="868"/>
      <point x="837" y="873" type="curve" smooth="yes"/>
      <point x="867" y="917"/>
      <point x="854" y="981"/>
      <point x="809" y="1011" type="curve" smooth="yes"/>
      <point x="788" y="1025" type="line"/>
      <point x="488" y="1203" type="line" smooth="yes"/>
      <point x="458" y="1221"/>
      <point x="411" y="1219"/>
      <point x="382" y="1200" type="curve" smooth="yes"/>
      <point x="99" y="1011" type="line" smooth="yes"/>
      <point x="54" y="981"/>
      <point x="41" y="917"/>
      <point x="71" y="873" type="curve" smooth="yes"/>
      <point x="101" y="828"/>
      <point x="165" y="815"/>
      <point x="209" y="845" type="curve" smooth="yes"/>
      <point x="440" y="999" type="line"/>
      <point x="657" y="870" type="line"/>
      <point x="405" y="773" type="line" smooth="yes"/>
      <point x="369" y="759"/>
      <point x="340" y="716"/>
      <point x="341" y="677" type="curve" smooth="yes"/>
      <point x="350" y="336" type="line" smooth="yes"/>
      <point x="350" y="333"/>
      <point x="351" y="327"/>
      <point x="351" y="324" type="curve" smooth="yes"/>
      <point x="384" y="99" type="line"/>
      <point x="150" y="99" type="line" smooth="yes"/>
      <point x="96" y="99"/>
      <point x="50" y="53"/>
      <point x="50" y="-1" type="curve" smooth="yes"/>
      <point x="50" y="-55"/>
      <point x="96" y="-101"/>
    </contour>
  </outline>
</glyph>
<glyph name="Ograve" format="1">
  <advance width="901"/>
  <unicode hex="00D2"/>
  <outline>
    <contour>
      <point x="502" y="99" type="line"/>
      <point x="403" y="99" type="line"/>
      <point x="250" y="311" type="line"/>
      <point x="250" y="563" type="line"/>
      <point x="450" y="683" type="line"/>
      <point x="651" y="569" type="line"/>
      <point x="651" y="311" type="line"/>
    </contour>
    <contour>
      <point x="544" y="-101" type="line" smooth="yes"/>
      <point x="547" y="-101"/>
      <point x="551" y="-101"/>
      <point x="554" y="-100" type="curve"/>
      <point x="586" y="-100"/>
      <point x="617" y="-85"/>
      <point x="636" y="-59" type="curve" smooth="yes"/>
      <point x="833" y="221" type="line" smooth="yes"/>
      <point x="843" y="236"/>
      <point x="851" y="262"/>
      <point x="851" y="279" type="curve" smooth="yes"/>
      <point x="851" y="627" type="line" smooth="yes"/>
      <point x="851" y="659"/>
      <point x="828" y="698"/>
      <point x="800" y="714" type="curve" smooth="yes"/>
      <point x="530" y="868" type="line"/>
      <point x="531" y="869"/>
      <point x="532" y="871"/>
      <point x="533" y="873" type="curve" smooth="yes"/>
      <point x="563" y="917"/>
      <point x="550" y="981"/>
      <point x="505" y="1011" type="curve" smooth="yes"/>
      <point x="222" y="1200" type="line"/>
      <point x="205" y="1211" type="line" smooth="yes"/>
      <point x="161" y="1241"/>
      <point x="97" y="1228"/>
      <point x="67" y="1183" type="curve" smooth="yes"/>
      <point x="37" y="1139"/>
      <point x="50" y="1075"/>
      <point x="95" y="1045" type="curve" smooth="yes"/>
      <point x="111" y="1034" type="line"/>
      <point x="364" y="865" type="line"/>
      <point x="98" y="705" type="line" smooth="yes"/>
      <point x="72" y="689"/>
      <point x="50" y="651"/>
      <point x="50" y="619" type="curve" smooth="yes"/>
      <point x="50" y="279" type="line" smooth="yes"/>
      <point x="50" y="261"/>
      <point x="58" y="235"/>
      <point x="69" y="220" type="curve" smooth="yes"/>
      <point x="271" y="-60" type="line" smooth="yes"/>
      <point x="287" y="-82"/>
      <point x="324" y="-101"/>
      <point x="352" y="-101" type="curve" smooth="yes"/>
    </contour>
  </outline>
</glyph>
<glyph name="Otilde" format="1">
  <advance width="901"/>
  <unicode hex="00D5"/>
  <outline>
    <contour>
      <point x="208" y="847" type="curve" smooth="yes"/>
      <point x="462" y="1028" type="line"/>
      <point x="750" y="1028" type="line" smooth="yes"/>
      <point x="804" y="1028"/>
      <point x="850" y="1074"/>
      <point x="850" y="1128" type="curve" smooth="yes"/>
      <point x="850" y="1182"/>
      <point x="804" y="1228"/>
      <point x="750" y="1228" type="curve" smooth="yes"/>
      <point x="430" y="1228" type="line" smooth="yes"/>
      <point x="412" y="1228"/>
      <point x="386" y="1220"/>
      <point x="372" y="1209" type="curve" smooth="yes"/>
      <point x="92" y="1009" type="line" smooth="yes"/>
      <point x="48" y="978"/>
      <point x="37" y="914"/>
      <point x="69" y="870" type="curve" smooth="yes"/>
      <point x="100" y="826"/>
      <point x="164" y="815"/>
    </contour>
    <contour>
      <point x="502" y="99" type="line"/>
      <point x="403" y="99" type="line"/>
      <point x="250" y="311" type="line"/>
      <point x="250" y="563" type="line"/>
      <point x="450" y="683" type="line"/>
      <point x="651" y="569" type="line"/>
      <point x="651" y="311" type="line"/>
    </contour>
    <contour>
      <point x="544" y="-101" type="line" smooth="yes"/>
      <point x="547" y="-101"/>
      <point x="551" y="-101"/>
      <point x="554" y="-100" type="curve"/>
      <point x="586" y="-100"/>
      <point x="617" y="-85"/>
      <point x="636" y="-59" type="curve" smooth="yes"/>
      <point x="833" y="221" type="line" smooth="yes"/>
      <point x="843" y="236"/>
      <point x="851" y="262"/>
      <point x="851" y="279" type="curve" smooth="yes"/>
      <point x="851" y="627" type="line" smooth="yes"/>
      <point x="851" y="659"/>
      <point x="828" y="698"/>
      <point x="800" y="714" type="curve" smooth="yes"/>
      <point x="498" y="886" type="line" smooth="yes"/>
      <point x="470" y="902"/>
      <point x="425" y="901"/>
      <point x="397" y="885" type="curve" smooth="yes"/>
      <point x="98" y="705" type="line" smooth="yes"/>
      <point x="72" y="689"/>
      <point x="50" y="651"/>
      <point x="50" y="619" type="curve" smooth="yes"/>
      <point x="50" y="279" type="line" smooth="yes"/>
      <point x="50" y="261"/>
      <point x="58" y="235"/>
      <point x="69" y="220" type="curve" smooth="yes"/>
      <point x="271" y="-60" type="line" smooth="yes"/>
      <point x="287" y="-82"/>
      <point x="324" y="-101"/>
      <point x="352" y="-101" type="curve" smooth="yes"/>
    </contour>
  </outline>
</glyph>
<glyph name="Oslash" format="1">
  <advance width="898"/>
  <unicode hex="00D8"/>
  <outline>
    <contour>
      <point x="289" y="354" type="line"/>
      <point x="262" y="385" type="line"/>
      <point x="329" y="591" type="line"/>
      <point x="468" y="593" type="line"/>
    </contour>
    <contour>
      <point x="492" y="201" type="line"/>
      <point x="426" y="201" type="line"/>
      <point x="425" y="202" type="line"/>
      <point x="606" y="443" type="line"/>
      <point x="628" y="393" type="line"/>
    </contour>
    <contour>
      <point x="229" y="-59" type="curve" smooth="yes"/>
      <point x="303" y="39" type="line"/>
      <point x="307" y="34" type="line" smooth="yes"/>
      <point x="323" y="16"/>
      <point x="357" y="1"/>
      <point x="381" y="1" type="curve" smooth="yes"/>
      <point x="534" y="1" type="line" smooth="yes"/>
      <point x="537" y="1"/>
      <point x="541" y="1"/>
      <point x="544" y="2" type="curve"/>
      <point x="575" y="2"/>
      <point x="607" y="16"/>
      <point x="626" y="43" type="curve" smooth="yes"/>
      <point x="824" y="323" type="line" smooth="yes"/>
      <point x="842" y="349"/>
      <point x="846" y="393"/>
      <point x="834" y="421" type="curve" smooth="yes"/>
      <point x="743" y="627" type="line"/>
      <point x="829" y="741" type="line" smooth="yes"/>
      <point x="861" y="784"/>
      <point x="852" y="849"/>
      <point x="809" y="881" type="curve" smooth="yes"/>
      <point x="766" y="913"/>
      <point x="701" y="904"/>
      <point x="669" y="861" type="curve" smooth="yes"/>
      <point x="619" y="794" type="line"/>
      <point x="613" y="795"/>
      <point x="608" y="796"/>
      <point x="602" y="796" type="curve" smooth="yes"/>
      <point x="254" y="789" type="line" smooth="yes"/>
      <point x="214" y="789"/>
      <point x="173" y="758"/>
      <point x="161" y="720" type="curve" smooth="yes"/>
      <point x="54" y="392" type="line" smooth="yes"/>
      <point x="44" y="362"/>
      <point x="53" y="318"/>
      <point x="74" y="294" type="curve" smooth="yes"/>
      <point x="167" y="191" type="line"/>
      <point x="69" y="61" type="line" smooth="yes"/>
      <point x="37" y="18"/>
      <point x="46" y="-47"/>
      <point x="89" y="-79" type="curve" smooth="yes"/>
      <point x="132" y="-111"/>
      <point x="197" y="-102"/>
    </contour>
  </outline>
</glyph>
<glyph name="Uacute" format="1">
  <advance width="900"/>
  <unicode hex="00DA"/>
  <outline>
    <contour>
      <point x="368" y="873" type="curve" smooth="yes"/>
      <point x="398" y="828"/>
      <point x="462" y="815"/>
      <point x="506" y="845" type="curve" smooth="yes"/>
      <point x="790" y="1034" type="line"/>
      <point x="806" y="1045" type="line" smooth="yes"/>
      <point x="851" y="1075"/>
      <point x="864" y="1139"/>
      <point x="834" y="1183" type="curve" smooth="yes"/>
      <point x="804" y="1228"/>
      <point x="740" y="1241"/>
      <point x="696" y="1211" type="curve" smooth="yes"/>
      <point x="679" y="1200" type="line"/>
      <point x="396" y="1011" type="line" smooth="yes"/>
      <point x="351" y="981"/>
      <point x="338" y="917"/>
    </contour>
    <contour>
      <point x="441" y="-97" type="curve" smooth="yes"/>
      <point x="768" y="4" type="line" smooth="yes"/>
      <point x="805" y="16"/>
      <point x="837" y="57"/>
      <point x="838" y="96" type="curve" smooth="yes"/>
      <point x="849" y="449" type="line"/>
      <point x="849" y="799" type="line" smooth="yes"/>
      <point x="849" y="853"/>
      <point x="803" y="899"/>
      <point x="749" y="899" type="curve" smooth="yes"/>
      <point x="695" y="899"/>
      <point x="649" y="853"/>
      <point x="649" y="799" type="curve" smooth="yes"/>
      <point x="649" y="449" type="line"/>
      <point x="641" y="174" type="line"/>
      <point x="436" y="111" type="line"/>
      <point x="250" y="274" type="line"/>
      <point x="250" y="799" type="line" smooth="yes"/>
      <point x="250" y="853"/>
      <point x="204" y="899"/>
      <point x="150" y="899" type="curve" smooth="yes"/>
      <point x="96" y="899"/>
      <point x="50" y="853"/>
      <point x="50" y="799" type="curve" smooth="yes"/>
      <point x="50" y="229" type="line" smooth="yes"/>
      <point x="50" y="204"/>
      <point x="65" y="170"/>
      <point x="84" y="154" type="curve" smooth="yes"/>
      <point x="346" y="-76" type="line" smooth="yes"/>
      <point x="369" y="-96"/>
      <point x="412" y="-106"/>
    </contour>
  </outline>
</glyph>
<glyph name="aacute" format="1">
  <advance width="900"/>
  <unicode hex="00E1"/>
  <outline>
    <contour>
      <point x="750" y="-104" type="curve" smooth="yes"/>
      <point x="804" y="-104"/>
      <point x="850" y="-58"/>
      <point x="850" y="-4" type="curve" smooth="yes"/>
      <point x="850" y="499" type="line" smooth="yes"/>
      <point x="850" y="515"/>
      <point x="843" y="538"/>
      <point x="835" y="552" type="curve" smooth="yes"/>
      <point x="654" y="848" type="line" smooth="yes"/>
      <point x="640" y="871"/>
      <point x="609" y="890"/>
      <point x="580" y="895" type="curve"/>
      <point x="789" y="1034" type="line"/>
      <point x="805" y="1045" type="line" smooth="yes"/>
      <point x="850" y="1075"/>
      <point x="863" y="1139"/>
      <point x="833" y="1183" type="curve" smooth="yes"/>
      <point x="803" y="1228"/>
      <point x="739" y="1241"/>
      <point x="695" y="1211" type="curve" smooth="yes"/>
      <point x="678" y="1200" type="line"/>
      <point x="395" y="1011" type="line" smooth="yes"/>
      <point x="353" y="984"/>
      <point x="339" y="927"/>
      <point x="360" y="884" type="curve"/>
      <point x="228" y="876" type="line" smooth="yes"/>
      <point x="187" y="874"/>
      <point x="147" y="840"/>
      <point x="137" y="800" type="curve" smooth="yes"/>
      <point x="53" y="463" type="line" smooth="yes"/>
      <point x="51" y="456"/>
      <point x="50" y="445"/>
      <point x="50" y="438" type="curve" smooth="yes"/>
      <point x="55" y="97" type="line" smooth="yes"/>
      <point x="56" y="1"/>
      <point x="158" y="-40"/>
      <point x="226" y="28" type="curve" smooth="yes"/>
      <point x="442" y="246" type="line"/>
      <point x="650" y="246" type="line"/>
      <point x="650" y="-4" type="line" smooth="yes"/>
      <point x="650" y="-58"/>
      <point x="696" y="-104"/>
    </contour>
    <contour>
      <point x="329" y="416" type="curve" smooth="yes"/>
      <point x="251" y="338" type="line"/>
      <point x="250" y="427" type="line"/>
      <point x="313" y="681" type="line"/>
      <point x="515" y="692" type="line"/>
      <point x="650" y="471" type="line"/>
      <point x="650" y="446" type="line"/>
      <point x="400" y="446" type="line" smooth="yes"/>
      <point x="377" y="446"/>
      <point x="345" y="433"/>
    </contour>
  </outline>
</glyph>
<glyph name="acircumflex" format="1">
  <advance width="900"/>
  <unicode hex="00E2"/>
  <outline>
    <contour>
      <point x="850" y="-4" type="curve" smooth="yes"/>
      <point x="850" y="499" type="line" smooth="yes"/>
      <point x="850" y="515"/>
      <point x="843" y="538"/>
      <point x="835" y="552" type="curve" smooth="yes"/>
      <point x="654" y="848" type="line" smooth="yes"/>
      <point x="637" y="876"/>
      <point x="596" y="897"/>
      <point x="563" y="895" type="curve" smooth="yes"/>
      <point x="255" y="878" type="line"/>
      <point x="436" y="999" type="line"/>
      <point x="682" y="853" type="line"/>
      <point x="695" y="845" type="line" smooth="yes"/>
      <point x="739" y="815"/>
      <point x="803" y="828"/>
      <point x="833" y="873" type="curve" smooth="yes"/>
      <point x="863" y="917"/>
      <point x="850" y="981"/>
      <point x="805" y="1011" type="curve" smooth="yes"/>
      <point x="784" y="1025" type="line"/>
      <point x="484" y="1203" type="line" smooth="yes"/>
      <point x="454" y="1221"/>
      <point x="407" y="1219"/>
      <point x="378" y="1200" type="curve" smooth="yes"/>
      <point x="95" y="1011" type="line" smooth="yes"/>
      <point x="50" y="981"/>
      <point x="37" y="917"/>
      <point x="67" y="873" type="curve" smooth="yes"/>
      <point x="85" y="845"/>
      <point x="117" y="829"/>
      <point x="150" y="829" type="curve"/>
      <point x="144" y="820"/>
      <point x="139" y="810"/>
      <point x="137" y="800" type="curve" smooth="yes"/>
      <point x="53" y="463" type="line" smooth="yes"/>
      <point x="51" y="456"/>
      <point x="50" y="445"/>
      <point x="50" y="438" type="curve" smooth="yes"/>
      <point x="55" y="97" type="line" smooth="yes"/>
      <point x="56" y="1"/>
      <point x="158" y="-40"/>
      <point x="226" y="28" type="curve" smooth="yes"/>
      <point x="442" y="246" type="line"/>
      <point x="650" y="246" type="line"/>
      <point x="650" y="-4" type="line" smooth="yes"/>
      <point x="650" y="-58"/>
      <point x="696" y="-104"/>
      <point x="750" y="-104" type="curve" smooth="yes"/>
      <point x="804" y="-104"/>
      <point x="850" y="-58"/>
    </contour>
    <contour>
      <point x="329" y="416" type="curve" smooth="yes"/>
      <point x="251" y="338" type="line"/>
      <point x="250" y="427" type="line"/>
      <point x="313" y="681" type="line"/>
      <point x="515" y="692" type="line"/>
      <point x="650" y="471" type="line"/>
      <point x="650" y="446" type="line"/>
      <point x="400" y="446" type="line" smooth="yes"/>
      <point x="377" y="446"/>
      <point x="345" y="433"/>
    </contour>
  </outline>
</glyph>
<glyph name="atilde" format="1">
  <advance width="900"/>
  <unicode hex="00E3"/>
  <outline>
    <contour>
      <point x="750" y="-104" type="curve" smooth="yes"/>
      <point x="804" y="-104"/>
      <point x="850" y="-58"/>
      <point x="850" y="-4" type="curve" smooth="yes"/>
      <point x="850" y="499" type="line" smooth="yes"/>
      <point x="850" y="515"/>
      <point x="843" y="538"/>
      <point x="835" y="552" type="curve" smooth="yes"/>
      <point x="654" y="848" type="line" smooth="yes"/>
      <point x="637" y="876"/>
      <point x="596" y="897"/>
      <point x="563" y="895" type="curve" smooth="yes"/>
      <point x="251" y="877" type="line"/>
      <point x="462" y="1028" type="line"/>
      <point x="750" y="1028" type="line" smooth="yes"/>
      <point x="804" y="1028"/>
      <point x="850" y="1074"/>
      <point x="850" y="1128" type="curve" smooth="yes"/>
      <point x="850" y="1182"/>
      <point x="804" y="1228"/>
      <point x="750" y="1228" type="curve" smooth="yes"/>
      <point x="430" y="1228" type="line" smooth="yes"/>
      <point x="412" y="1228"/>
      <point x="386" y="1220"/>
      <point x="372" y="1209" type="curve" smooth="yes"/>
      <point x="92" y="1009" type="line" smooth="yes"/>
      <point x="48" y="978"/>
      <point x="37" y="914"/>
      <point x="69" y="870" type="curve" smooth="yes"/>
      <point x="88" y="843"/>
      <point x="118" y="829"/>
      <point x="150" y="829" type="curve"/>
      <point x="144" y="820"/>
      <point x="139" y="810"/>
      <point x="137" y="800" type="curve" smooth="yes"/>
      <point x="53" y="463" type="line" smooth="yes"/>
      <point x="51" y="456"/>
      <point x="50" y="445"/>
      <point x="50" y="438" type="curve" smooth="yes"/>
      <point x="55" y="97" type="line" smooth="yes"/>
      <point x="56" y="1"/>
      <point x="158" y="-40"/>
      <point x="226" y="28" type="curve" smooth="yes"/>
      <point x="442" y="246" type="line"/>
      <point x="650" y="246" type="line"/>
      <point x="650" y="-4" type="line" smooth="yes"/>
      <point x="650" y="-58"/>
      <point x="696" y="-104"/>
    </contour>
    <contour>
      <point x="329" y="416" type="curve" smooth="yes"/>
      <point x="251" y="338" type="line"/>
      <point x="250" y="427" type="line"/>
      <point x="313" y="681" type="line"/>
      <point x="515" y="692" type="line"/>
      <point x="650" y="471" type="line"/>
      <point x="650" y="446" type="line"/>
      <point x="400" y="446" type="line" smooth="yes"/>
      <point x="377" y="446"/>
      <point x="345" y="433"/>
    </contour>
  </outline>
</glyph>
<glyph name="ntilde" format="1">
  <advance width="904"/>
  <unicode hex="00F1"/>
  <outline>
    <contour>
      <point x="250" y="-1" type="curve" smooth="yes"/>
      <point x="250" y="109" type="line"/>
      <point x="250" y="456" type="line"/>
      <point x="255" y="621" type="line"/>
      <point x="350" y="562" type="line"/>
      <point x="350" y="279" type="line" smooth="yes"/>
      <point x="350" y="248"/>
      <point x="372" y="209"/>
      <point x="399" y="193" type="curve" smooth="yes"/>
      <point x="699" y="13" type="line" smooth="yes"/>
      <point x="771" y="-30"/>
      <point x="850" y="15"/>
      <point x="850" y="99" type="curve" smooth="yes"/>
      <point x="850" y="799" type="line" smooth="yes"/>
      <point x="850" y="853"/>
      <point x="804" y="899"/>
      <point x="750" y="899" type="curve" smooth="yes"/>
      <point x="696" y="899"/>
      <point x="650" y="853"/>
      <point x="650" y="799" type="curve" smooth="yes"/>
      <point x="650" y="276" type="line"/>
      <point x="550" y="336" type="line"/>
      <point x="550" y="617" type="line" smooth="yes"/>
      <point x="550" y="647"/>
      <point x="529" y="685"/>
      <point x="503" y="701" type="curve" smooth="yes"/>
      <point x="240" y="867" type="line"/>
      <point x="466" y="1028" type="line"/>
      <point x="754" y="1028" type="line" smooth="yes"/>
      <point x="808" y="1028"/>
      <point x="854" y="1074"/>
      <point x="854" y="1128" type="curve" smooth="yes"/>
      <point x="854" y="1182"/>
      <point x="808" y="1228"/>
      <point x="754" y="1228" type="curve" smooth="yes"/>
      <point x="434" y="1228" type="line" smooth="yes"/>
      <point x="416" y="1228"/>
      <point x="390" y="1220"/>
      <point x="376" y="1209" type="curve" smooth="yes"/>
      <point x="96" y="1009" type="line" smooth="yes"/>
      <point x="52" y="978"/>
      <point x="41" y="914"/>
      <point x="73" y="870" type="curve" smooth="yes"/>
      <point x="75" y="867"/>
      <point x="77" y="865"/>
      <point x="79" y="862" type="curve"/>
      <point x="68" y="846"/>
      <point x="61" y="826"/>
      <point x="60" y="802" type="curve" smooth="yes"/>
      <point x="50" y="462" type="line"/>
      <point x="50" y="109" type="line"/>
      <point x="50" y="-1" type="line" smooth="yes"/>
      <point x="50" y="-55"/>
      <point x="96" y="-101"/>
      <point x="150" y="-101" type="curve" smooth="yes"/>
      <point x="204" y="-101"/>
      <point x="250" y="-55"/>
    </contour>
  </outline>
</glyph>
<glyph name="oacute" format="1">
  <advance width="901"/>
  <unicode hex="00F3"/>
  <outline>
    <contour>
      <point x="502" y="99" type="line"/>
      <point x="403" y="99" type="line"/>
      <point x="250" y="311" type="line"/>
      <point x="250" y="563" type="line"/>
      <point x="450" y="683" type="line"/>
      <point x="651" y="569" type="line"/>
      <point x="651" y="311" type="line"/>
    </contour>
    <contour>
      <point x="544" y="-101" type="line" smooth="yes"/>
      <point x="547" y="-101"/>
      <point x="551" y="-101"/>
      <point x="554" y="-100" type="curve"/>
      <point x="586" y="-100"/>
      <point x="617" y="-85"/>
      <point x="636" y="-59" type="curve" smooth="yes"/>
      <point x="833" y="221" type="line" smooth="yes"/>
      <point x="843" y="236"/>
      <point x="851" y="262"/>
      <point x="851" y="279" type="curve" smooth="yes"/>
      <point x="851" y="627" type="line" smooth="yes"/>
      <point x="851" y="659"/>
      <point x="828" y="698"/>
      <point x="800" y="714" type="curve" smooth="yes"/>
      <point x="535" y="865" type="line"/>
      <point x="789" y="1034" type="line"/>
      <point x="805" y="1045" type="line" smooth="yes"/>
      <point x="850" y="1075"/>
      <point x="863" y="1139"/>
      <point x="833" y="1183" type="curve" smooth="yes"/>
      <point x="803" y="1228"/>
      <point x="739" y="1241"/>
      <point x="695" y="1211" type="curve" smooth="yes"/>
      <point x="678" y="1200" type="line"/>
      <point x="395" y="1011" type="line" smooth="yes"/>
      <point x="350" y="981"/>
      <point x="337" y="917"/>
      <point x="367" y="873" type="curve" smooth="yes"/>
      <point x="368" y="871"/>
      <point x="369" y="870"/>
      <point x="370" y="868" type="curve"/>
      <point x="98" y="705" type="line" smooth="yes"/>
      <point x="72" y="689"/>
      <point x="50" y="651"/>
      <point x="50" y="619" type="curve" smooth="yes"/>
      <point x="50" y="279" type="line" smooth="yes"/>
      <point x="50" y="261"/>
      <point x="58" y="235"/>
      <point x="69" y="220" type="curve" smooth="yes"/>
      <point x="271" y="-60" type="line" smooth="yes"/>
      <point x="287" y="-82"/>
      <point x="324" y="-101"/>
      <point x="352" y="-101" type="curve" smooth="yes"/>
    </contour>
  </outline>
</glyph>
<glyph name="ocircumflex" format="1">
  <advance width="901"/>
  <unicode hex="00F4"/>
  <outline>
    <contour>
      <point x="205" y="845" type="curve" smooth="yes"/>
      <point x="436" y="999" type="line"/>
      <point x="682" y="853" type="line"/>
      <point x="695" y="845" type="line" smooth="yes"/>
      <point x="739" y="815"/>
      <point x="803" y="828"/>
      <point x="833" y="873" type="curve" smooth="yes"/>
      <point x="863" y="917"/>
      <point x="850" y="981"/>
      <point x="805" y="1011" type="curve" smooth="yes"/>
      <point x="784" y="1025" type="line"/>
      <point x="484" y="1203" type="line" smooth="yes"/>
      <point x="454" y="1221"/>
      <point x="407" y="1219"/>
      <point x="378" y="1200" type="curve" smooth="yes"/>
      <point x="95" y="1011" type="line" smooth="yes"/>
      <point x="50" y="981"/>
      <point x="37" y="917"/>
      <point x="67" y="873" type="curve" smooth="yes"/>
      <point x="97" y="828"/>
      <point x="161" y="815"/>
    </contour>
    <contour>
      <point x="502" y="99" type="line"/>
      <point x="403" y="99" type="line"/>
      <point x="250" y="311" type="line"/>
      <point x="250" y="563" type="line"/>
      <point x="450" y="683" type="line"/>
      <point x="651" y="569" type="line"/>
      <point x="651" y="311" type="line"/>
    </contour>
    <contour>
      <point x="544" y="-101" type="line" smooth="yes"/>
      <point x="547" y="-101"/>
      <point x="551" y="-101"/>
      <point x="554" y="-100" type="curve"/>
      <point x="586" y="-100"/>
      <point x="617" y="-85"/>
      <point x="636" y="-59" type="curve" smooth="yes"/>
      <point x="833" y="221" type="line" smooth="yes"/>
      <point x="843" y="236"/>
      <point x="851" y="262"/>
      <point x="851" y="279" type="curve" smooth="yes"/>
      <point x="851" y="627" type="line" smooth="yes"/>
      <point x="851" y="659"/>
      <point x="828" y="698"/>
      <point x="800" y="714" type="curve" smooth="yes"/>
      <point x="498" y="886" type="line" smooth="yes"/>
      <point x="470" y="902"/>
      <point x="425" y="901"/>
      <point x="397" y="885" type="curve" smooth="yes"/>
      <point x="98" y="705" type="line" smooth="yes"/>
      <point x="72" y="689"/>
      <point x="50" y="651"/>
      <point x="50" y="619" type="curve" smooth="yes"/>
      <point x="50" y="279" type="line" smooth="yes"/>
      <point x="50" y="261"/>
      <point x="58" y="235"/>
      <point x="69" y="220" type="curve" smooth="yes"/>
      <point x="271" y="-60" type="line" smooth="yes"/>
      <point x="287" y="-82"/>
      <point x="324" y="-101"/>
      <point x="352" y="-101" type="curve" smooth="yes"/>
    </contour>
  </outline>
</glyph>
<glyph name="ucircumflex" format="1">
  <advance width="900"/>
  <unicode hex="00FB"/>
  <outline>
    <contour>
      <point x="441" y="-97" type="curve" smooth="yes"/>
      <point x="768" y="4" type="line" smooth="yes"/>
      <point x="805" y="16"/>
      <point x="837" y="57"/>
      <point x="838" y="96" type="curve" smooth="yes"/>
      <point x="849" y="449" type="line"/>
      <point x="849" y="799" type="line" smooth="yes"/>
      <point x="849" y="823"/>
      <point x="840" y="845"/>
      <point x="826" y="862" type="curve"/>
      <point x="829" y="865"/>
      <point x="832" y="869"/>
      <point x="834" y="873" type="curve" smooth="yes"/>
      <point x="864" y="917"/>
      <point x="851" y="981"/>
      <point x="806" y="1011" type="curve" smooth="yes"/>
      <point x="785" y="1025" type="line"/>
      <point x="485" y="1203" type="line" smooth="yes"/>
      <point x="455" y="1221"/>
      <point x="408" y="1219"/>
      <point x="379" y="1200" type="curve" smooth="yes"/>
      <point x="96" y="1011" type="line" smooth="yes"/>
      <point x="51" y="981"/>
      <point x="38" y="917"/>
      <point x="68" y="873" type="curve" smooth="yes"/>
      <point x="70" y="869"/>
      <point x="72" y="866"/>
      <point x="75" y="864" type="curve"/>
      <point x="59" y="846"/>
      <point x="50" y="823"/>
      <point x="50" y="799" type="curve" smooth="yes"/>
      <point x="50" y="229" type="line" smooth="yes"/>
      <point x="50" y="204"/>
      <point x="65" y="170"/>
      <point x="84" y="154" type="curve" smooth="yes"/>
      <point x="346" y="-76" type="line" smooth="yes"/>
      <point x="369" y="-96"/>
      <point x="412" y="-106"/>
    </contour>
    <contour>
      <point x="250" y="799" type="line" smooth="yes"/>
      <point x="250" y="822"/>
      <point x="242" y="843"/>
      <point x="229" y="860" type="curve"/>
      <point x="437" y="999" type="line"/>
      <point x="671" y="860" type="line"/>
      <point x="657" y="843"/>
      <point x="649" y="822"/>
      <point x="649" y="799" type="curve" smooth="yes"/>
      <point x="649" y="449" type="line"/>
      <point x="641" y="174" type="line"/>
      <point x="436" y="111" type="line"/>
      <point x="250" y="274" type="line"/>
    </contour>
  </outline>
</glyph>
<glyph name="circumflex" format="1">
  <advance width="898"/>
  <unicode hex="02C6"/>
  <outline>
    <contour>
      <point x="204" y="845" type="curve" smooth="yes"/>
      <point x="435" y="999" type="line"/>
      <point x="681" y="853" type="line"/>
      <point x="694" y="845" type="line" smooth="yes"/>
      <point x="738" y="815"/>
      <point x="802" y="828"/>
      <point x="832" y="873" type="curve" smooth="yes"/>
      <point x="862" y="917"/>
      <point x="849" y="981"/>
      <point x="804" y="1011" type="curve" smooth="yes"/>
      <point x="783" y="1025" type="line"/>
      <point x="483" y="1203" type="line" smooth="yes"/>
      <point x="453" y="1221"/>
      <point x="406" y="1219"/>
      <point x="377" y="1200" type="curve" smooth="yes"/>
      <point x="94" y="1011" type="line" smooth="yes"/>
      <point x="49" y="981"/>
      <point x="36" y="917"/>
      <point x="66" y="873" type="curve" smooth="yes"/>
      <point x="96" y="828"/>
      <point x="160" y="815"/>
    </contour>
  </outline>
</glyph>
<glyph name="tilde" format="1">
  <advance width="899"/>
  <unicode hex="02DC"/>
  <outline>
    <contour>
      <point x="207" y="847" type="curve" smooth="yes"/>
      <point x="461" y="1028" type="line"/>
      <point x="749" y="1028" type="line" smooth="yes"/>
      <point x="803" y="1028"/>
      <point x="849" y="1074"/>
      <point x="849" y="1128" type="curve" smooth="yes"/>
      <point x="849" y="1182"/>
      <point x="803" y="1228"/>
      <point x="749" y="1228" type="curve" smooth="yes"/>
      <point x="429" y="1228" type="line" smooth="yes"/>
      <point x="411" y="1228"/>
      <point x="385" y="1220"/>
      <point x="371" y="1209" type="curve" smooth="yes"/>
      <point x="91" y="1009" type="line" smooth="yes"/>
      <point x="47" y="978"/>
      <point x="36" y="914"/>
      <point x="68" y="870" type="curve" smooth="yes"/>
      <point x="99" y="826"/>
      <point x="163" y="815"/>
    </contour>
  </outline>
</glyph>
<glyph name="quotedblleft" format="1">
  <advance width="505"/>
  <unicode hex="201C"/>
  <outline>
    <contour>
      <point x="345" y="559" type="curve" smooth="yes"/>
      <point x="445" y="759" type="line" smooth="yes"/>
      <point x="470" y="808"/>
      <point x="449" y="869"/>
      <point x="401" y="893" type="curve" smooth="yes"/>
      <point x="369" y="909"/>
      <point x="332" y="906"/>
      <point x="303" y="888" type="curve"/>
      <point x="301" y="890"/>
      <point x="298" y="892"/>
      <point x="295" y="893" type="curve" smooth="yes"/>
      <point x="246" y="918"/>
      <point x="185" y="897"/>
      <point x="161" y="849" type="curve" smooth="yes"/>
      <point x="61" y="649" type="line" smooth="yes"/>
      <point x="36" y="600"/>
      <point x="57" y="539"/>
      <point x="105" y="515" type="curve" smooth="yes"/>
      <point x="137" y="499"/>
      <point x="174" y="502"/>
      <point x="203" y="520" type="curve"/>
      <point x="205" y="518"/>
      <point x="208" y="516"/>
      <point x="211" y="515" type="curve" smooth="yes"/>
      <point x="260" y="490"/>
      <point x="321" y="511"/>
    </contour>
  </outline>
</glyph>
<glyph name="quotedblright" format="1">
  <advance width="499"/>
  <unicode hex="201D"/>
  <outline>
    <contour>
      <point x="339" y="554" type="curve" smooth="yes"/>
      <point x="439" y="754" type="line" smooth="yes"/>
      <point x="464" y="803"/>
      <point x="443" y="864"/>
      <point x="395" y="888" type="curve" smooth="yes"/>
      <point x="364" y="904"/>
      <point x="329" y="901"/>
      <point x="301" y="885" type="curve"/>
      <point x="299" y="886"/>
      <point x="297" y="887"/>
      <point x="295" y="888" type="curve" smooth="yes"/>
      <point x="246" y="913"/>
      <point x="185" y="892"/>
      <point x="161" y="844" type="curve" smooth="yes"/>
      <point x="61" y="644" type="line" smooth="yes"/>
      <point x="36" y="595"/>
      <point x="57" y="534"/>
      <point x="105" y="510" type="curve" smooth="yes"/>
      <point x="136" y="494"/>
      <point x="171" y="497"/>
      <point x="199" y="513" type="curve"/>
      <point x="201" y="512"/>
      <point x="203" y="511"/>
      <point x="205" y="510" type="curve" smooth="yes"/>
      <point x="254" y="485"/>
      <point x="315" y="506"/>
    </contour>
  </outline>
</glyph>
<glyph name="bullet" format="1">
  <advance width="499"/>
  <unicode hex="2022"/>
  <outline>
    <contour>
      <point x="421" y="132" type="curve" smooth="yes"/>
      <point x="459" y="170"/>
      <point x="459" y="236"/>
      <point x="421" y="274" type="curve" smooth="yes"/>
      <point x="391" y="303" type="line"/>
      <point x="421" y="332" type="line" smooth="yes"/>
      <point x="459" y="370"/>
      <point x="459" y="436"/>
      <point x="421" y="474" type="curve" smooth="yes"/>
      <point x="383" y="512"/>
      <point x="317" y="512"/>
      <point x="279" y="474" type="curve" smooth="yes"/>
      <point x="250" y="444" type="line"/>
      <point x="221" y="474" type="line" smooth="yes"/>
      <point x="183" y="512"/>
      <point x="117" y="512"/>
      <point x="79" y="474" type="curve" smooth="yes"/>
      <point x="41" y="436"/>
      <point x="41" y="370"/>
      <point x="79" y="332" type="curve" smooth="yes"/>
      <point x="109" y="303" type="line"/>
      <point x="79" y="274" type="line" smooth="yes"/>
      <point x="41" y="236"/>
      <point x="41" y="170"/>
      <point x="79" y="132" type="curve" smooth="yes"/>
      <point x="117" y="94"/>
      <point x="183" y="94"/>
      <point x="221" y="132" type="curve" smooth="yes"/>
      <point x="250" y="162" type="line"/>
      <point x="279" y="132" type="line" smooth="yes"/>
      <point x="317" y="94"/>
      <point x="383" y="94"/>
    </contour>
  </outline>
</glyph>
